<svg xmlns="http://www.w3.org/2000/svg" xmlns:xlink="http://www.w3.org/1999/xlink" width="416" height="154" viewBox="0 0 416 154"><defs><style>.a{clip-path:url(#b);}.b{fill:#dadbdd;}.b,.d{opacity:0.004;}.c,.g,.h,.j,.o,.p,.s,.u{fill:#2f3540;}.d{fill:#fff;}.e,.f,.i,.k,.n,.q{fill:none;}.e,.g,.h,.i,.j{stroke:#2f3540;}.e,.n{stroke-width:1.3px;}.g,.o{stroke-width:1.25px;}.h,.l,.p{stroke-width:0.3px;}.j,.r,.s{stroke-width:0.2px;}.l,.m,.r,.v{fill:#003da6;}.l,.n,.o,.p,.q,.r,.s{stroke:#003da6;}.t,.u,.v{stroke:none;}</style><clipPath id="b"><rect width="416" height="154"/></clipPath></defs><g id="a" class="a"><g transform="translate(14 20)"><rect class="b" width="25" height="25" rx="2"/><g transform="translate(6 6)"><path class="c" d="M3,14.969v2.977H5.977l8.779-8.779L11.779,6.19Zm2.518,1.8H4.11l.178-1.406L11.779,8.02,13,9.167Z" transform="translate(-3 -3.948)"/><path class="c" d="M19.938,5.266,17.922,3.25a.863.863,0,0,0-1.215,0L15.13,4.827l3.231,3.231,1.577-1.577A.858.858,0,0,0,19.938,5.266Z" transform="translate(-6.19 -3)"/></g><g transform="translate(45)"><rect class="d" width="25" height="25" rx="2"/><path class="c" d="M10.842,1H3.263A1.272,1.272,0,0,0,2,2.273v8.909H3.263V2.273h7.579Zm1.895,2.545H5.789A1.272,1.272,0,0,0,4.526,4.818v8.909A1.272,1.272,0,0,0,5.789,15h6.947A1.272,1.272,0,0,0,14,13.727V4.818A1.272,1.272,0,0,0,12.737,3.545Zm0,10.182H5.789V4.818h6.947Z" transform="translate(5 5)"/></g><g transform="translate(90)"><rect class="d" width="25" height="25" rx="2"/><g transform="translate(7 6)"><g class="e"><rect class="t" width="5" height="14" rx="1"/><rect class="k" x="0.65" y="0.65" width="3.7" height="12.7" rx="0.35"/></g><g class="e" transform="translate(6)"><rect class="t" width="5" height="14" rx="1"/><rect class="k" x="0.65" y="0.65" width="3.7" height="12.7" rx="0.35"/></g></g></g><g transform="translate(135)"><rect class="d" width="25" height="25" rx="2"/><g transform="translate(6 6)"><g class="f"><path class="t" d="M7,0A7,7,0,1,1,0,7,7,7,0,0,1,7,0Z"/><path class="u" d="M 7 1.25 C 3.829440116882324 1.25 1.25 3.829440116882324 1.25 7 C 1.25 10.17055988311768 3.829440116882324 12.75 7 12.75 C 10.17055988311768 12.75 12.75 10.17055988311768 12.75 7 C 12.75 3.829440116882324 10.17055988311768 1.25 7 1.25 M 7 0 C 10.86598968505859 0 14 3.134010314941406 14 7 C 14 10.86598968505859 10.86598968505859 14 7 14 C 3.134010314941406 14 0 10.86598968505859 0 7 C 0 3.134010314941406 3.134010314941406 0 7 0 Z"/></g><path class="g" d="M0,7.012V0" transform="translate(4.44 4.44) rotate(-45)"/><path class="g" d="M7.012,0H0" transform="translate(4.44 9.398) rotate(-45)"/></g></g><g transform="translate(180)"><rect class="d" width="25" height="25" rx="2"/><g transform="translate(7.001 5.999)"><path class="c" d="M5.775,14.491A1.5,1.5,0,0,0,7.326,15.93h6.2a1.5,1.5,0,0,0,1.551-1.439V5.859H5.775ZM7.113,6.948h6.671v7.809H7.113ZM13.165,4.16l-.775-.719H8.512l-.775.719H5.022L5,5.139H15.857l.022-.979Z" transform="translate(-5 -3.441)"/></g></g><g transform="translate(363 5.992)"><path class="h" d="M8.049.316a1.121,1.121,0,0,0-.816-.3,2.523,2.523,0,0,0-1.01.248L6.2.273A5.063,5.063,0,0,0,4.768,1.295l-.669.67a3.843,3.843,0,0,0-4.027.9.245.245,0,0,0,0,.346L1.637,4.772l.023.023-.61.61a.245.245,0,0,0,0,.346L2.616,7.316a.245.245,0,0,0,.346,0l.61-.61.023.023h0L5.159,8.294a.245.245,0,0,0,.346,0,3.837,3.837,0,0,0,.9-4.027L7.071,3.6A4.728,4.728,0,0,0,8.227,1.832,1.432,1.432,0,0,0,8.049.316ZM7.7.662a.962.962,0,0,1,.079.953L6.75.583A1.682,1.682,0,0,1,7.234.5.639.639,0,0,1,7.7.662ZM3.71,2.352l-1.9,1.9L.6,3.039A3.343,3.343,0,0,1,3.71,2.352ZM2.789,6.8,1.569,5.577l.437-.437.985.985.234.234Zm2.538.972L4.113,6.556l1.9-1.9A3.347,3.347,0,0,1,5.326,7.769Zm1.4-4.517L3.767,6.21l-.632-.632s-.342-.331-.346-.346L2.156,4.6,4.33,2.425l0,0,.781-.781A4.745,4.745,0,0,1,6.261.785l1.32,1.32a4.69,4.69,0,0,1-.856,1.146Z" transform="matrix(0.999, -0.035, 0.035, 0.999, 2.351, 3.207)"/><g class="i" transform="translate(0 0.008)"><circle class="t" cx="7" cy="7" r="7"/><circle class="k" cx="7" cy="7" r="6.5"/></g><path class="i" d="M1.623-4.223,10.7,4.1" transform="translate(0.883 6.954)"/></g><g transform="translate(320 5.987)"><path class="j" d="M12.528.485A1.745,1.745,0,0,0,11.258.013,3.926,3.926,0,0,0,9.686.4a.378.378,0,0,0-.043.019,7.879,7.879,0,0,0-2.222,1.59L6.379,3.051A5.979,5.979,0,0,0,.112,4.446a.381.381,0,0,0,0,.539L2.548,7.422l.035.035-.949.949a.381.381,0,0,0,0,.539l2.436,2.437a.381.381,0,0,0,.539,0l.949-.949.035.035h0L8.03,12.906a.381.381,0,0,0,.539,0,5.975,5.975,0,0,0,1.395-6.27L11,5.594a7.361,7.361,0,0,0,1.8-2.749A2.229,2.229,0,0,0,12.528.485Zm-.539.539a1.5,1.5,0,0,1,.123,1.483L10.506.9a2.617,2.617,0,0,1,.753-.125,1,1,0,0,1,.731.249ZM5.775,3.655,2.817,6.614.929,4.725a5.2,5.2,0,0,1,4.845-1.07ZM4.34,10.574l-1.9-1.9L3.122,8,4.655,9.53l.364.364Zm3.949,1.514L6.4,10.2,9.359,7.241A5.212,5.212,0,0,1,8.289,12.088Zm2.177-7.033L5.863,9.66l-.984-.985L8.265,5.288a.381.381,0,0,0-.539-.539L4.34,8.137l-.984-.985L6.738,3.769l.006-.006L7.959,2.547A7.384,7.384,0,0,1,9.744,1.216L11.8,3.27a7.3,7.3,0,0,1-1.332,1.785Z" transform="translate(0)"/><path class="c" d="M359.843,97.618l-.677-.677a.381.381,0,0,0-.538.538l.677.677a.381.381,0,0,0,.538-.538Z" transform="translate(-349.413 -94.358)"/></g><g transform="translate(245 23) rotate(180)"><path class="c" d="M9.949,5.853H7.462V13.17H5.8V5.853H3.316L6.633,2.927ZM0,1.463V0H13.265V1.463Z" transform="translate(3.367 3.526)"/><path class="k" d="M0,20H20V0H0Z"/></g><g transform="translate(275.633 4)"><path class="j" d="M775.205,561.461A4.357,4.357,0,0,0,770.972,557a4.233,4.233,0,0,0-3.859,2.636h-4.3a1.351,1.351,0,0,0-1.312,1.383V572.04a1.351,1.351,0,0,0,1.312,1.383h8.579a1.351,1.351,0,0,0,1.312-1.383v-6.514A4.48,4.48,0,0,0,775.205,561.461Zm-3.271,10.58a.558.558,0,0,1-.542.572h-8.579a.559.559,0,0,1-.543-.572V561.019a.559.559,0,0,1,.543-.572h4.041a4.567,4.567,0,0,0,.049,2.23h-2.516a.406.406,0,0,0,0,.811h2.647a.365.365,0,0,0,.156-.037,4.431,4.431,0,0,0,1.356,1.659h-4.159a.406.406,0,0,0,0,.811h6.2a.35.35,0,0,0,.077-.016c.1.008.2.016.308.016a4.016,4.016,0,0,0,.962-.121Zm-.962-6.93a3.655,3.655,0,1,1,3.464-3.65A3.564,3.564,0,0,1,770.972,565.11Z" transform="translate(-761.5 -557)"/><path class="j" d="M784.811,564.481v-2.076a.405.405,0,1,0-.811,0v2.465l1.369,1.1a.406.406,0,1,0,.507-.633Z" transform="translate(-774.993 -559.972)"/><path class="j" d="M774.605,583h-6.2a.405.405,0,1,0,0,.811h6.2a.405.405,0,1,0,0-.811Z" transform="translate(-765.625 -572.457)"/><path class="j" d="M774.605,589h-6.2a.406.406,0,1,0,0,.811h6.2a.406.406,0,0,0,0-.811Z" transform="translate(-765.625 -576.023)"/></g></g><g transform="translate(63 110)"><path class="k" d="M0,0H18V18H0Z"/><g transform="translate(-19.904 5)"><path class="l" d="M31.888,0H24.9V9.089h8.2V1.221ZM27.034.533h2.524V1.859H27.034Zm3.057,0h.888V1.859h-.888Zm.888,8.024H27.034V5.126h3.944V8.556Zm1.6,0H31.511V4.593H26.5V8.556H25.437V.533H26.5V2.392h5.009V.533h.156l.909.909V8.556Z"/></g></g><g transform="translate(106 110)"><path class="m" d="M14,5.906,13.094,5,9.5,8.594,5.906,5,5,5.906,8.594,9.5,5,13.094,5.906,14,9.5,10.406,13.094,14,14,13.094,10.406,9.5Z" transform="translate(0.001 0)"/><path class="k" d="M0,0H18V18H0Z"/></g><g transform="translate(14 110)"><path class="k" d="M0,0H20V20H0Z"/><path class="m" d="M10.8,6H9.2V9.2H6v1.6H9.2V14h1.6V10.8H14V9.2H10.8ZM10,2a8,8,0,1,0,8,8A8,8,0,0,0,10,2Zm0,14.4A6.4,6.4,0,1,1,16.4,10,6.408,6.408,0,0,1,10,16.4Z"/></g><g transform="translate(14 65)"><rect class="b" width="25" height="25" rx="2"/><g transform="translate(6 6)"><path class="m" d="M3,14.969v2.977H5.977l8.779-8.779L11.779,6.19Zm2.518,1.8H4.11l.178-1.406L11.779,8.02,13,9.167Z" transform="translate(-3 -3.948)"/><path class="m" d="M19.938,5.266,17.922,3.25a.863.863,0,0,0-1.215,0L15.13,4.827l3.231,3.231,1.577-1.577A.858.858,0,0,0,19.938,5.266Z" transform="translate(-6.19 -3)"/></g><g transform="translate(45)"><rect class="d" width="25" height="25" rx="2"/><path class="m" d="M10.842,1H3.263A1.272,1.272,0,0,0,2,2.273v8.909H3.263V2.273h7.579Zm1.895,2.545H5.789A1.272,1.272,0,0,0,4.526,4.818v8.909A1.272,1.272,0,0,0,5.789,15h6.947A1.272,1.272,0,0,0,14,13.727V4.818A1.272,1.272,0,0,0,12.737,3.545Zm0,10.182H5.789V4.818h6.947Z" transform="translate(5 5)"/></g><g transform="translate(90)"><rect class="d" width="25" height="25" rx="2"/><g transform="translate(7 6)"><g class="n"><rect class="t" width="5" height="14" rx="1"/><rect class="k" x="0.65" y="0.65" width="3.7" height="12.7" rx="0.35"/></g><g class="n" transform="translate(6)"><rect class="t" width="5" height="14" rx="1"/><rect class="k" x="0.65" y="0.65" width="3.7" height="12.7" rx="0.35"/></g></g></g><g transform="translate(135)"><rect class="d" width="25" height="25" rx="2"/><g transform="translate(6 6)"><g class="f"><path class="t" d="M7,0A7,7,0,1,1,0,7,7,7,0,0,1,7,0Z"/><path class="v" d="M 7 1.25 C 3.829440116882324 1.25 1.25 3.829440116882324 1.25 7 C 1.25 10.17055988311768 3.829440116882324 12.75 7 12.75 C 10.17055988311768 12.75 12.75 10.17055988311768 12.75 7 C 12.75 3.829440116882324 10.17055988311768 1.25 7 1.25 M 7 0 C 10.86598968505859 0 14 3.134010314941406 14 7 C 14 10.86598968505859 10.86598968505859 14 7 14 C 3.134010314941406 14 0 10.86598968505859 0 7 C 0 3.134010314941406 3.134010314941406 0 7 0 Z"/></g><path class="o" d="M0,7.012V0" transform="translate(4.44 4.44) rotate(-45)"/><path class="o" d="M7.012,0H0" transform="translate(4.44 9.398) rotate(-45)"/></g></g><g transform="translate(180)"><rect class="d" width="25" height="25" rx="2"/><g transform="translate(7.001 5.999)"><path class="m" d="M5.775,14.491A1.5,1.5,0,0,0,7.326,15.93h6.2a1.5,1.5,0,0,0,1.551-1.439V5.859H5.775ZM7.113,6.948h6.671v7.809H7.113ZM13.165,4.16l-.775-.719H8.512l-.775.719H5.022L5,5.139H15.857l.022-.979Z" transform="translate(-5 -3.441)"/></g></g><g transform="translate(363 5.992)"><path class="p" d="M8.049.316a1.121,1.121,0,0,0-.816-.3,2.523,2.523,0,0,0-1.01.248L6.2.273A5.063,5.063,0,0,0,4.768,1.295l-.669.67a3.843,3.843,0,0,0-4.027.9.245.245,0,0,0,0,.346L1.637,4.772l.023.023-.61.61a.245.245,0,0,0,0,.346L2.616,7.316a.245.245,0,0,0,.346,0l.61-.61.023.023h0L5.159,8.294a.245.245,0,0,0,.346,0,3.837,3.837,0,0,0,.9-4.027L7.071,3.6A4.728,4.728,0,0,0,8.227,1.832,1.432,1.432,0,0,0,8.049.316ZM7.7.662a.962.962,0,0,1,.079.953L6.75.583A1.682,1.682,0,0,1,7.234.5.639.639,0,0,1,7.7.662ZM3.71,2.352l-1.9,1.9L.6,3.039A3.343,3.343,0,0,1,3.71,2.352ZM2.789,6.8,1.569,5.577l.437-.437.985.985.234.234Zm2.538.972L4.113,6.556l1.9-1.9A3.347,3.347,0,0,1,5.326,7.769Zm1.4-4.517L3.767,6.21l-.632-.632s-.342-.331-.346-.346L2.156,4.6,4.33,2.425l0,0,.781-.781A4.745,4.745,0,0,1,6.261.785l1.32,1.32a4.69,4.69,0,0,1-.856,1.146Z" transform="matrix(0.999, -0.035, 0.035, 0.999, 2.351, 3.207)"/><g class="q" transform="translate(0 0.008)"><circle class="t" cx="7" cy="7" r="7"/><circle class="k" cx="7" cy="7" r="6.5"/></g><path class="q" d="M1.623-4.223,10.7,4.1" transform="translate(0.883 6.954)"/></g><g transform="translate(320 5.987)"><path class="r" d="M12.528.485A1.745,1.745,0,0,0,11.258.013,3.926,3.926,0,0,0,9.686.4a.378.378,0,0,0-.043.019,7.879,7.879,0,0,0-2.222,1.59L6.379,3.051A5.979,5.979,0,0,0,.112,4.446a.381.381,0,0,0,0,.539L2.548,7.422l.035.035-.949.949a.381.381,0,0,0,0,.539l2.436,2.437a.381.381,0,0,0,.539,0l.949-.949.035.035h0L8.03,12.906a.381.381,0,0,0,.539,0,5.975,5.975,0,0,0,1.395-6.27L11,5.594a7.361,7.361,0,0,0,1.8-2.749A2.229,2.229,0,0,0,12.528.485Zm-.539.539a1.5,1.5,0,0,1,.123,1.483L10.506.9a2.617,2.617,0,0,1,.753-.125,1,1,0,0,1,.731.249ZM5.775,3.655,2.817,6.614.929,4.725a5.2,5.2,0,0,1,4.845-1.07ZM4.34,10.574l-1.9-1.9L3.122,8,4.655,9.53l.364.364Zm3.949,1.514L6.4,10.2,9.359,7.241A5.212,5.212,0,0,1,8.289,12.088Zm2.177-7.033L5.863,9.66l-.984-.985L8.265,5.288a.381.381,0,0,0-.539-.539L4.34,8.137l-.984-.985L6.738,3.769l.006-.006L7.959,2.547A7.384,7.384,0,0,1,9.744,1.216L11.8,3.27a7.3,7.3,0,0,1-1.332,1.785Z" transform="translate(0)"/><path class="c" d="M359.843,97.618l-.677-.677a.381.381,0,0,0-.538.538l.677.677a.381.381,0,0,0,.538-.538Z" transform="translate(-349.413 -94.358)"/></g><g transform="translate(245 23) rotate(180)"><path class="m" d="M9.949,5.853H7.462V13.17H5.8V5.853H3.316L6.633,2.927ZM0,1.463V0H13.265V1.463Z" transform="translate(3.367 3.526)"/><path class="k" d="M0,20H20V0H0Z"/></g><g transform="translate(275.633 4)"><path class="r" d="M775.205,561.461A4.357,4.357,0,0,0,770.972,557a4.233,4.233,0,0,0-3.859,2.636h-4.3a1.351,1.351,0,0,0-1.312,1.383V572.04a1.351,1.351,0,0,0,1.312,1.383h8.579a1.351,1.351,0,0,0,1.312-1.383v-6.514A4.48,4.48,0,0,0,775.205,561.461Zm-3.271,10.58a.558.558,0,0,1-.542.572h-8.579a.559.559,0,0,1-.543-.572V561.019a.559.559,0,0,1,.543-.572h4.041a4.567,4.567,0,0,0,.049,2.23h-2.516a.406.406,0,0,0,0,.811h2.647a.365.365,0,0,0,.156-.037,4.431,4.431,0,0,0,1.356,1.659h-4.159a.406.406,0,0,0,0,.811h6.2a.35.35,0,0,0,.077-.016c.1.008.2.016.308.016a4.016,4.016,0,0,0,.962-.121Zm-.962-6.93a3.655,3.655,0,1,1,3.464-3.65A3.564,3.564,0,0,1,770.972,565.11Z" transform="translate(-761.5 -557)"/><path class="s" d="M784.811,564.481v-2.076a.405.405,0,1,0-.811,0v2.465l1.369,1.1a.406.406,0,1,0,.507-.633Z" transform="translate(-774.993 -559.972)"/><path class="s" d="M774.605,583h-6.2a.405.405,0,1,0,0,.811h6.2a.405.405,0,1,0,0-.811Z" transform="translate(-765.625 -572.457)"/><path class="s" d="M774.605,589h-6.2a.406.406,0,1,0,0,.811h6.2a.406.406,0,0,0,0-.811Z" transform="translate(-765.625 -576.023)"/></g></g></g></svg>