<svg xmlns="http://www.w3.org/2000/svg" xmlns:xlink="http://www.w3.org/1999/xlink" width="156" height="386" viewBox="0 0 156 386"><defs><style>.a{clip-path:url(#b);}.b,.f,.g,.l{fill:none;}.c,.d,.e,.h,.p{fill:#fff;}.d,.e,.f,.h{stroke:#fff;}.d,.j{stroke-width:0.5px;}.e,.k{stroke-width:0.4px;}.f,.h,.l,.m{stroke-width:2px;}.h,.m{stroke-linecap:round;stroke-linejoin:round;}.i{fill:#003da6;}.j{fill:#00a3e0;stroke:#00a3e0;}.k{fill:#00b140;stroke:#00b140;}.l{stroke:#f1b434;}.m,.q{fill:#ef3340;}.m{stroke:#ef3340;}.n,.r{fill:#636a76;}.o,.p,.q,.r{stroke:none;}</style><clipPath id="b"><rect width="156" height="386"/></clipPath></defs><g id="a" class="a"><g transform="translate(85 -110)"><g transform="translate(19 137)"><path class="b" d="M0,0H23.422V23.422H0Z"/><path class="c" d="M3,3H20.422V4.936H3Zm0,7.743H20.422v1.936H3Zm0,7.743H20.422v1.936H3Zm0-3.872H20.422V16.55H3ZM3,6.872H20.422V8.807H3Z" transform="translate(0 0)"/></g></g><g transform="translate(85 -52)"><g transform="translate(19 137)"><path class="b" d="M0,0H23.422V23.422H0Z"/><path class="d" d="M18.169,17.459a.71.71,0,0,1-.71.71H9.084a.71.71,0,1,1,0-1.419h8.375A.71.71,0,0,1,18.169,17.459Zm-.71-3.5H11.876a.71.71,0,0,0,0,1.419h5.583a.71.71,0,0,0,0-1.419Zm0-2.791H14.668a.71.71,0,0,0,0,1.419h2.792a.71.71,0,0,0,0-1.419Zm.5-5.767L5.4,17.961a.709.709,0,0,1-.5.208H.71a.71.71,0,0,1-.71-.71V13.272a.709.709,0,0,1,.208-.5L12.77.208a.709.709,0,0,1,1,0L17.961,4.4A.709.709,0,0,1,17.961,5.4Zm-1.506-.5L13.272,1.713,1.419,13.566v3.184H4.6Zm0,0" transform="translate(2.643 2.832)"/></g></g><g transform="translate(84.5 8)"><g transform="translate(19 137)"><path class="b" d="M0,0H23.422V23.422H0Z" transform="translate(0.5)"/><path class="e" d="M16.545.636A2.3,2.3,0,0,0,14.868.013a5.186,5.186,0,0,0-2.077.509.5.5,0,0,0-.056.025A10.405,10.405,0,0,0,9.8,2.647L8.424,4.023A7.9,7.9,0,0,0,.147,5.865a.5.5,0,0,0,0,.711L3.365,9.794l.047.047L2.159,11.094a.5.5,0,0,0,0,.711l3.218,3.218a.5.5,0,0,0,.711,0L7.341,13.77l.047.047h0L10.6,17.034a.5.5,0,0,0,.711,0,7.886,7.886,0,0,0,1.842-8.278l1.376-1.376a9.717,9.717,0,0,0,2.377-3.63A2.942,2.942,0,0,0,16.545.636Zm-.711.711A1.976,1.976,0,0,1,16,3.305L13.874,1.184a3.457,3.457,0,0,1,.994-.165,1.314,1.314,0,0,1,.965.328ZM7.626,4.821,3.721,8.727,1.227,6.233a6.872,6.872,0,0,1,6.4-1.412ZM5.732,13.956,3.225,11.45l.9-.9,2.025,2.025.481.481Zm5.216,2L8.454,13.461,12.36,9.555A6.879,6.879,0,0,1,10.948,15.954ZM13.822,6.67l-6.08,6.08-1.3-1.3,4.472-4.473a.5.5,0,0,0-.711-.711L5.732,10.738l-1.3-1.3L8.9,4.971l.008-.008,1.6-1.6A9.752,9.752,0,0,1,12.869,1.6l2.712,2.713A9.639,9.639,0,0,1,13.822,6.67Z" transform="translate(3 3.486)"/></g></g><g transform="translate(85 68)"><g transform="translate(19 137)"><path class="b" d="M0,0H23.422V23.422H0Z"/><g transform="translate(20337.609 21515.631)"><g class="f" transform="translate(-20332.609 -21512.631)"><rect class="o" width="6" height="17" rx="1"/><rect class="b" x="1" y="1" width="4" height="15"/></g><g class="f" transform="translate(-20324.609 -21512.631)"><rect class="o" width="6" height="17" rx="1"/><rect class="b" x="1" y="1" width="4" height="15"/></g></g></g></g><g transform="translate(85 129)"><g transform="translate(19 137)"><path class="b" d="M0,0H23.422V23.422H0Z"/><g transform="translate(2.975 2.967)"><g class="g" transform="translate(0 0.008)"><path class="o" d="M9,0A9,9,0,1,1,0,9,9,9,0,0,1,9,0Z"/><path class="p" d="M 9 2 C 5.140190124511719 2 2 5.140190124511719 2 9 C 2 12.85980987548828 5.140190124511719 16 9 16 C 12.85980987548828 16 16 12.85980987548828 16 9 C 16 5.140190124511719 12.85980987548828 2 9 2 M 9 0 C 13.97056007385254 0 18 4.029439926147461 18 9 C 18 13.97056007385254 13.97056007385254 18 9 18 C 4.029439926147461 18 0 13.97056007385254 0 9 C 0 4.029439926147461 4.029439926147461 0 9 0 Z"/></g><path class="h" d="M2.707,2.7,0,5.41,2.707,2.7,0,0,2.707,2.7,5.413,0,2.707,2.7,5.413,5.41Z" transform="translate(6.271 6.278)"/></g></g></g><g transform="translate(85 188)"><g transform="translate(19 137)"><path class="b" d="M0,0H23.422V23.422H0Z"/><g class="g" transform="translate(2 2)"><path class="o" d="M9.5,0A9.5,9.5,0,1,1,0,9.5,9.5,9.5,0,0,1,9.5,0Z"/><path class="p" d="M 9.5 2 C 5.364489555358887 2 2 5.364489555358887 2 9.5 C 2 13.6355094909668 5.364489555358887 17 9.5 17 C 13.6355094909668 17 17 13.6355094909668 17 9.5 C 17 5.364489555358887 13.6355094909668 2 9.5 2 M 9.5 0 C 14.74670028686523 0 19 4.253299713134766 19 9.5 C 19 14.74670028686523 14.74670028686523 19 9.5 19 C 4.253299713134766 19 0 14.74670028686523 0 9.5 C 0 4.253299713134766 4.253299713134766 0 9.5 0 Z"/></g><circle class="c" cx="5.5" cy="5.5" r="5.5" transform="translate(6 6)"/></g></g><g transform="translate(-128)"><g transform="translate(143 -110)"><g transform="translate(19 137)"><path class="b" d="M0,0H23.422V23.422H0Z"/><path class="i" d="M3,3H20.422V4.936H3Zm0,7.743H20.422v1.936H3Zm0,7.743H20.422v1.936H3Zm0-3.872H20.422V16.55H3ZM3,6.872H20.422V8.807H3Z" transform="translate(0 0)"/></g></g><g transform="translate(162 85)"><path class="b" d="M0,0H23.422V23.422H0Z"/><path class="j" d="M18.169,17.459a.71.71,0,0,1-.71.71H9.084a.71.71,0,1,1,0-1.419h8.375A.71.71,0,0,1,18.169,17.459Zm-.71-3.5H11.876a.71.71,0,0,0,0,1.419h5.583a.71.71,0,0,0,0-1.419Zm0-2.791H14.668a.71.71,0,0,0,0,1.419h2.792a.71.71,0,0,0,0-1.419Zm.5-5.767L5.4,17.961a.709.709,0,0,1-.5.208H.71a.71.71,0,0,1-.71-.71V13.272a.709.709,0,0,1,.208-.5L12.77.208a.709.709,0,0,1,1,0L17.961,4.4A.709.709,0,0,1,17.961,5.4Zm-1.506-.5L13.272,1.713,1.419,13.566v3.184H4.6Zm0,0" transform="translate(2.643 2.832)"/></g><g transform="translate(161.5 145)"><path class="b" d="M0,0H23.422V23.422H0Z" transform="translate(0.5)"/><path class="k" d="M16.545.636A2.3,2.3,0,0,0,14.868.013a5.186,5.186,0,0,0-2.077.509.5.5,0,0,0-.056.025A10.405,10.405,0,0,0,9.8,2.647L8.424,4.023A7.9,7.9,0,0,0,.147,5.865a.5.5,0,0,0,0,.711L3.365,9.794l.047.047L2.159,11.094a.5.5,0,0,0,0,.711l3.218,3.218a.5.5,0,0,0,.711,0L7.341,13.77l.047.047h0L10.6,17.034a.5.5,0,0,0,.711,0,7.886,7.886,0,0,0,1.842-8.278l1.376-1.376a9.717,9.717,0,0,0,2.377-3.63A2.942,2.942,0,0,0,16.545.636Zm-.711.711A1.976,1.976,0,0,1,16,3.305L13.874,1.184a3.457,3.457,0,0,1,.994-.165,1.314,1.314,0,0,1,.965.328ZM7.626,4.821,3.721,8.727,1.227,6.233a6.872,6.872,0,0,1,6.4-1.412ZM5.732,13.956,3.225,11.45l.9-.9,2.025,2.025.481.481Zm5.216,2L8.454,13.461,12.36,9.555A6.879,6.879,0,0,1,10.948,15.954ZM13.822,6.67l-6.08,6.08-1.3-1.3,4.472-4.473a.5.5,0,0,0-.711-.711L5.732,10.738l-1.3-1.3L8.9,4.971l.008-.008,1.6-1.6A9.752,9.752,0,0,1,12.869,1.6l2.712,2.713A9.639,9.639,0,0,1,13.822,6.67Z" transform="translate(3 3.486)"/></g><g transform="translate(162 205)"><path class="b" d="M0,0H23.422V23.422H0Z"/><g transform="translate(20337.609 21515.631)"><g class="l" transform="translate(-20332.609 -21512.631)"><rect class="o" width="6" height="17" rx="1"/><rect class="b" x="1" y="1" width="4" height="15"/></g><g class="l" transform="translate(-20324.609 -21512.631)"><rect class="o" width="6" height="17" rx="1"/><rect class="b" x="1" y="1" width="4" height="15"/></g></g></g><g transform="translate(162 266)"><path class="b" d="M0,0H23.422V23.422H0Z"/><g transform="translate(2.975 2.967)"><g class="g" transform="translate(0 0.008)"><path class="o" d="M9,0A9,9,0,1,1,0,9,9,9,0,0,1,9,0Z"/><path class="q" d="M 9 2 C 5.140190124511719 2 2 5.140190124511719 2 9 C 2 12.85980987548828 5.140190124511719 16 9 16 C 12.85980987548828 16 16 12.85980987548828 16 9 C 16 5.140190124511719 12.85980987548828 2 9 2 M 9 0 C 13.97056007385254 0 18 4.029439926147461 18 9 C 18 13.97056007385254 13.97056007385254 18 9 18 C 4.029439926147461 18 0 13.97056007385254 0 9 C 0 4.029439926147461 4.029439926147461 0 9 0 Z"/></g><path class="m" d="M2.707,2.7,0,5.41,2.707,2.7,0,0,2.707,2.7,5.413,0,2.707,2.7,5.413,5.41Z" transform="translate(6.271 6.278)"/></g></g><g transform="translate(162 325)"><path class="b" d="M0,0H23.422V23.422H0Z"/><g class="g" transform="translate(2 2)"><path class="o" d="M9.5,0A9.5,9.5,0,1,1,0,9.5,9.5,9.5,0,0,1,9.5,0Z"/><path class="r" d="M 9.5 2 C 5.364489555358887 2 2 5.364489555358887 2 9.5 C 2 13.6355094909668 5.364489555358887 17 9.5 17 C 13.6355094909668 17 17 13.6355094909668 17 9.5 C 17 5.364489555358887 13.6355094909668 2 9.5 2 M 9.5 0 C 14.74670028686523 0 19 4.253299713134766 19 9.5 C 19 14.74670028686523 14.74670028686523 19 9.5 19 C 4.253299713134766 19 0 14.74670028686523 0 9.5 C 0 4.253299713134766 4.253299713134766 0 9.5 0 Z"/></g><circle class="n" cx="5.5" cy="5.5" r="5.5" transform="translate(6 6)"/></g></g></g></svg>