<svg xmlns="http://www.w3.org/2000/svg" width="69" height="69" viewBox="0 0 69 69"><defs><style>.a{fill:#00a3e0;}.a,.b{opacity:0.256;}.b,.e{fill:none;}.b{stroke:#00a3e0;}.c{fill:#003da6;stroke:#003da6;stroke-width:0.3px;}.d{stroke:none;}</style></defs><g transform="translate(-193 -328.33)"><g transform="translate(193 328.149)"><circle class="a" cx="28.5" cy="28.5" r="28.5" transform="translate(6 6.182)"/><g class="b" transform="translate(0 0.182)"><circle class="d" cx="34.5" cy="34.5" r="34.5"/><circle class="e" cx="34.5" cy="34.5" r="34"/></g></g><path class="c" d="M20.264,75.707H13.309a.863.863,0,0,1-.861-.74l-.395-2.736H2V70.5H19.324a.95.95,0,0,0,.926-.725v-.014c0-.045.014-.092.014-.137a.871.871,0,0,0-.869-.867.866.866,0,1,1,0-1.732.87.87,0,0,0,0-1.74.868.868,0,1,1,0-1.736.869.869,0,1,0,0-1.738.867.867,0,1,1,0-1.734h2.553a.931.931,0,0,0,.908-.719l.006-.016c0-.047.01-.094.01-.133A.87.87,0,0,0,22,58.334H13.309a.865.865,0,1,1,0-1.73h3.473a2.608,2.608,0,0,0,2.459-1.742H10.094l-5,3.332a.836.836,0,0,1-.475.141H2V56.6H4.348l4.994-3.328-.273-1.885H6.35a.876.876,0,0,1-.871-.871V48.791H2.873A.875.875,0,0,1,2,47.924V39.232a.868.868,0,0,1,.873-.863H5.479V36.633a.872.872,0,0,1,.871-.871H20.088L40.26,27.367v-.289a3.476,3.476,0,0,1,6.951,0V38.555l6.3,1.57a.891.891,0,0,1,.662.85v5.207a.879.879,0,0,1-.662.844l-6.3,1.572V60.076a3.476,3.476,0,0,1-6.951,0v-.291L20.088,51.391h-2.3l.246,1.74h2.234a.864.864,0,0,1,.863.865,4.37,4.37,0,0,1-.863,2.607H22a3.217,3.217,0,0,1,.438.033,2.621,2.621,0,0,1,2.137,3.01,2.693,2.693,0,0,1-2.635,2.174l-.033,0h-.062a2.559,2.559,0,0,1-.516,2.6,2.6,2.6,0,0,1,0,3.484.205.205,0,0,1,.051.043,2.576,2.576,0,0,1,.576,2.115,2.537,2.537,0,0,1-1.246,1.785l.412,2.871c0,.041,0,.082,0,.121A.869.869,0,0,1,20.264,75.707Zm-6.449-3.479v0l.248,1.742h5.193L19.01,72.23h-5.2ZM43.74,25.336A1.741,1.741,0,0,0,42,27.078v33a1.738,1.738,0,0,0,3.477,0v-33A1.739,1.739,0,0,0,43.74,25.336Zm-3.48,3.91h0L21.127,37.205v12.74L40.26,57.906V29.246ZM10.826,51.389v0l.254,1.74h5.2l-.248-1.74h-5.2ZM7.219,37.5V49.654H19.395V37.5H7.219ZM3.742,40.1v6.953H5.479V40.1H3.742Zm43.469.254h0v6.457l5.223-1.3V41.652l-5.223-1.3Zm5.508,24.656v0L49.3,61.6l1.209-1.211,3.406,3.416-1.2,1.2Zm.918-7.764v0l-4.26-3.4,1.063-1.328,4.266,3.406-1.068,1.326ZM17.621,41.811h-1.7V39.258h1.7v2.553Zm-3.482,0h-1.7V39.258h1.7v2.553Zm-3.605,0H8.824V39.258h1.709v2.553Zm39.906-6.457v0l-1.062-1.332,4.26-3.4,1.068,1.326-4.266,3.41Zm.066-7.736v0l-1.2-1.2L52.719,23l1.2,1.211-3.412,3.4Z" transform="translate(194.327 320.998)"/></g></svg>