<svg xmlns="http://www.w3.org/2000/svg" width="42.092" height="42.147" viewBox="0 0 42.092 42.147"><defs><style>.a{fill:#fff;}</style></defs><g transform="translate(0 0.49)"><path class="a" d="M41.452,18.861,36.424,17.6V8.426a2.777,2.777,0,1,0-5.554,0v.231L14.762,15.369H3.792a.694.694,0,0,0-.694.694v1.389H1.015a.694.694,0,0,0-.694.694v6.943a.694.694,0,0,0,.694.694H3.1v1.389a.694.694,0,0,0,.694.694H5.967l.215,1.507L2.2,32.032H.321V33.42H2.4a.7.7,0,0,0,.385-.117l3.989-2.66h7.31a2.087,2.087,0,0,1-1.964,1.389H9.347a.694.694,0,1,0,0,1.389h6.943a.694.694,0,0,1,.684.816.752.752,0,0,1-.758.573H14.207a.694.694,0,0,0,0,1.389.694.694,0,1,1,0,1.389.694.694,0,1,0,0,1.389.694.694,0,1,1,0,1.389.694.694,0,0,0,0,1.389.694.694,0,0,1,.684.816.752.752,0,0,1-.758.573H.321v1.389H8.348l.312,2.181a.694.694,0,0,0,.687.6H14.9a.694.694,0,0,0,.687-.793l-.328-2.3a2.057,2.057,0,0,0,1-1.423,2.09,2.09,0,0,0-.468-1.693c-.011-.014-.023-.028-.035-.041a2.079,2.079,0,0,0,0-2.777,2.083,2.083,0,0,0,.413-2.083h.044a2.141,2.141,0,0,0,2.129-1.736,2.083,2.083,0,0,0-2.056-2.431H14.9a3.453,3.453,0,0,0,.694-2.083.694.694,0,0,0-.694-.694H13.123l-.2-1.389h1.838l16.107,6.712v.231a2.777,2.777,0,0,0,5.554,0V25.631l5.028-1.257a.694.694,0,0,0,.526-.673V19.535A.694.694,0,0,0,41.452,18.861ZM3.1,24.395H1.71V18.84H3.1Zm6.85,21.523-.2-1.389H13.9l.2,1.389ZM7.568,29.255l-.2-1.389h4.152l.2,1.389Zm6.639-2.777H4.487v-9.72h9.72Zm16.663,6.6L15.6,26.709V16.526l15.274-6.364Zm4.166,1.736a1.389,1.389,0,0,1-2.777,0V8.426a1.389,1.389,0,0,1,2.777,0Zm5.554-11.651L36.424,24.2V19.035l4.166,1.041Z" transform="translate(-0.321 -5.649)"/></g><g transform="translate(5.554 12.987)"><rect class="a" width="1.389" height="2.083"/></g><g transform="translate(8.331 12.987)"><rect class="a" width="1.389" height="2.083"/></g><g transform="translate(11.109 12.987)"><rect class="a" width="1.389" height="2.083"/></g><g transform="translate(37.754 6.194)"><g transform="translate(0 0)"><rect class="a" width="4.445" height="1.389" transform="translate(0 2.778) rotate(-38.675)"/></g></g><g transform="translate(37.693 0)"><rect class="a" width="3.928" height="1.389" transform="translate(0 2.777) rotate(-45)"/></g><g transform="translate(37.753 23.552)"><g transform="translate(0 0)"><rect class="a" width="1.389" height="4.445" transform="matrix(0.625, -0.781, 0.781, 0.625, 0, 1.084)"/></g></g><g transform="translate(37.694 29.849)"><g transform="translate(0 0)"><rect class="a" width="1.389" height="3.928" transform="translate(0 0.982) rotate(-45)"/></g></g></svg>