<svg xmlns="http://www.w3.org/2000/svg" width="19.861" height="17.087" viewBox="0 0 19.861 17.087"><defs><style>.a{fill:#2f3540;stroke:#2f3540;stroke-width:0.4px;}</style></defs><path class="a" d="M1.274,8.344H0L.9,7.187l.9-1.156.9,1.156.9,1.157H2.151A7.4,7.4,0,0,0,9.479,15.8a7.313,7.313,0,0,0,6.372-3.774.437.437,0,0,1,.5-.211.448.448,0,0,1,.263.646,8.19,8.19,0,0,1-7.137,4.23A8.284,8.284,0,0,1,1.274,8.344Zm5.617.844H5.638V8.465H6.726a3.144,3.144,0,0,1,0-.724H5.638V7.018H6.89A3.208,3.208,0,0,1,9.907,4.846a3.16,3.16,0,0,1,2.135.832l-.63.64a2.287,2.287,0,0,0-3.554.7H9.907v.724H7.623a2.312,2.312,0,0,0,0,.724H9.907v.723H7.858a2.3,2.3,0,0,0,2.049,1.267,2.259,2.259,0,0,0,1.5-.568l.634.64a3.152,3.152,0,0,1-2.135.832A3.208,3.208,0,0,1,6.89,9.188Zm9.457.312-.9-1.157h1.359A7.4,7.4,0,0,0,9.479.891,7.316,7.316,0,0,0,3.086,4.7a.438.438,0,0,1-.5.213.448.448,0,0,1-.265-.644A8.193,8.193,0,0,1,9.479,0a8.285,8.285,0,0,1,8.206,8.344h1.358l-.9,1.157-.9,1.157Z" transform="translate(0.409 0.2)"/></svg>