<svg xmlns="http://www.w3.org/2000/svg" width="17.691" height="17.691" viewBox="0 0 17.691 17.691"><defs><style>.a{opacity:0.922;}.b{fill:#003da6;}</style></defs><g class="a"><path class="b" d="M7.256,0a7.256,7.256,0,1,0,7.256,7.256A7.264,7.264,0,0,0,7.256,0Zm0,12.439a5.183,5.183,0,1,1,5.183-5.183A5.189,5.189,0,0,1,7.256,12.439Z"/><g transform="translate(11.914 11.914)"><path class="b" d="M350.111,347.912l-3.123-3.123a8.362,8.362,0,0,1-2.2,2.2l3.123,3.123a1.555,1.555,0,0,0,2.2-2.2Z" transform="translate(-344.789 -344.789)"/></g><g transform="translate(5.183 4.665)"><path class="b" d="M152.07,135a2.073,2.073,0,1,0,2.073,2.073A2.075,2.075,0,0,0,152.07,135Z" transform="translate(-149.997 -134.997)"/></g><g transform="translate(4.278 8.814)"><path class="b" d="M129.8,256.292a3.086,3.086,0,0,0-.7-1.21,3.073,3.073,0,0,1-4.591.007,3.327,3.327,0,0,0-.685,1.309,4.114,4.114,0,0,0,5.987-.038C129.8,256.337,129.8,256.313,129.8,256.292Z" transform="translate(-123.822 -255.082)"/></g></g></svg>