<svg xmlns="http://www.w3.org/2000/svg" width="42.133" height="42.133" viewBox="0 0 42.133 42.133"><defs><style>.a{fill:#fff;}</style></defs><path class="a" d="M162.133,191.254a.823.823,0,1,0-1.164,0A.822.822,0,0,0,162.133,191.254Zm0,0" transform="translate(-147.501 -174.226)"/><path class="a" d="M229.792,174.062a2.469,2.469,0,1,0-3.492,0A2.471,2.471,0,0,0,229.792,174.062Zm-2.328-2.327a.823.823,0,1,1,0,1.163A.823.823,0,0,1,227.464,171.734Zm0,0" transform="translate(-207.013 -155.87)"/><path class="a" d="M226.3,283.7a2.469,2.469,0,1,0,3.492,0A2.468,2.468,0,0,0,226.3,283.7Zm2.328,2.328a.823.823,0,1,1,0-1.164A.823.823,0,0,1,228.628,286.027Zm0,0" transform="translate(-207.013 -259.689)"/><path class="a" d="M174.886,235.581a.823.823,0,0,0,.968.645l11.637-2.328a.823.823,0,1,0-.323-1.614l-11.637,2.328A.822.822,0,0,0,174.886,235.581Zm0,0" transform="translate(-160.479 -213.155)"/><path class="a" d="M75.824,56.574a.823.823,0,0,0-.582.241l-8.64,8.64a.823.823,0,0,0,1.164,1.164l8.058-8.058L86.3,69.035,67.824,87.509,57.35,77.035l5.762-5.762a.823.823,0,0,0-1.164-1.164L55.6,76.454a.823.823,0,0,0,0,1.164L67.242,89.255a.823.823,0,0,0,1.164,0L88.044,69.616a.823.823,0,0,0,0-1.164L76.406,56.815A.823.823,0,0,0,75.824,56.574Zm0,0" transform="translate(-50.807 -51.919)"/><path class="a" d="M40.727.241,37.2,3.773a5.816,5.816,0,0,0-6.95-.064L27.352.732,27.344.724a2.467,2.467,0,0,0-3.492,0L.723,23.953a2.468,2.468,0,0,0,0,3.492l3.264,3.264a5.847,5.847,0,0,0,7.437,7.437l3.264,3.264a2.468,2.468,0,0,0,3.49,0L41.409,18.279a2.467,2.467,0,0,0,0-3.491L41.4,14.78l-2.977-2.892a5.8,5.8,0,0,0-.065-6.951l3.532-3.532A.823.823,0,1,0,40.727.241ZM36.713,11.356a.823.823,0,0,0,.008,1.172l3.527,3.428a.822.822,0,0,1,0,1.158L17.016,40.245a.824.824,0,0,1-1.164,0L12.2,36.6a.823.823,0,0,0-.931-.163A4.2,4.2,0,0,1,5.7,30.862a.823.823,0,0,0-.163-.932L1.887,26.281a.825.825,0,0,1,0-1.166L25.017,1.887a.822.822,0,0,1,1.16,0L29.6,5.411a.822.822,0,0,0,1.172.009,4.143,4.143,0,0,1,5.239-.466L34.809,6.16a2.467,2.467,0,1,0,1.165,1.163L37.18,6.116A4.136,4.136,0,0,1,36.713,11.356ZM34.327,7.805a.823.823,0,1,1-1.164,0A.823.823,0,0,1,34.327,7.805Zm0,0" transform="translate(0 0)"/></svg>