<svg xmlns="http://www.w3.org/2000/svg" width="34" height="40" viewBox="0 0 34 40"><defs><style>.a{fill:#00b140;}.b{fill:#fff;font-size:12px;font-family:Montserrat-Medium, Montserrat;font-weight:500;}</style></defs><path class="a" d="M238.892,250.539a5.473,5.473,0,0,0-1.334.128v4.214a4.938,4.938,0,0,0,1.08.085c1.716,0,2.775-.869,2.775-2.329C241.413,251.323,240.5,250.539,238.892,250.539Z" transform="translate(-223.576 -232.742)"/><path class="a" d="M63.352,14.308H62.43V9.673a.7.7,0,0,0-.008-.087.789.789,0,0,0-.179-.508l-7.4-8.81s0,0-.006-.006a.755.755,0,0,0-.15-.131C54.67.12,54.653.111,54.636.1a.759.759,0,0,0-.149-.065l-.04-.014A.722.722,0,0,0,54.275,0H36.083a1.54,1.54,0,0,0-1.506,1.569V14.307h-.922A2.2,2.2,0,0,0,31.5,16.549V28.209a2.2,2.2,0,0,0,2.152,2.242h.922v7.981A1.54,1.54,0,0,0,36.083,40H60.925a1.54,1.54,0,0,0,1.506-1.569V30.45h.922A2.2,2.2,0,0,0,65.5,28.209V16.55A2.2,2.2,0,0,0,63.352,14.308ZM36.083,1.569H53.522V9.595a.769.769,0,0,0,.753.784h6.65v3.929H36.083ZM51.42,19.845a3.832,3.832,0,0,1-1.034,2.781,5.081,5.081,0,0,1-3.652,1.233,6.134,6.134,0,0,1-.868-.052V28H43.348V16.44a19.909,19.909,0,0,1,3.436-.244,5.236,5.236,0,0,1,3.437.938A3.483,3.483,0,0,1,51.42,19.845ZM35.374,27.909l.284-2.137a4.021,4.021,0,0,0,1.3.209c1.068,0,1.735-.5,1.735-2.329V16.283h2.535v7.4c0,3.337-1.535,4.5-4,4.5A6.335,6.335,0,0,1,35.374,27.909Zm25.55,10.1H36.083V30.45H60.925v7.556Zm1.5-10.55a12.125,12.125,0,0,1-3.754.66,6.11,6.11,0,0,1-4.569-1.581,5.792,5.792,0,0,1-1.585-4.257c.016-3.893,2.735-6.117,6.421-6.117a7.466,7.466,0,0,1,3.119.573l-.534,2.12a6.016,6.016,0,0,0-2.619-.5,3.469,3.469,0,0,0-3.718,3.789c0,2.415,1.45,3.84,3.536,3.84a3.27,3.27,0,0,0,1.251-.174v-2.45H58.243V21.288h4.187v6.169Z" transform="translate(-31.504)"/><rect class="a" width="30" height="13" transform="translate(3 16)"/><text class="b" transform="translate(5 26)"><tspan x="0" y="0">CSV</tspan></text></svg>