<svg xmlns="http://www.w3.org/2000/svg" width="20.959" height="18.863" viewBox="0 0 20.959 18.863"><defs><style>.a{fill:#525964;opacity:0.596;}</style></defs><path class="a" d="M20.14,0H.819A.843.843,0,0,0,0,.865V18a.843.843,0,0,0,.819.865H20.14A.843.843,0,0,0,20.959,18V.865A.843.843,0,0,0,20.14,0Zm-.819,17.133H1.637V5.884H19.322Zm0-12.979H1.637V1.731H19.322ZM3.111,14.71a.843.843,0,0,1,.819-.865h.819v-2.6a.82.82,0,1,1,1.637,0v2.6H9.661V9.518a.82.82,0,1,1,1.637,0v4.326h3.275V7.788a.82.82,0,1,1,1.637,0v6.057h.819a.867.867,0,0,1,0,1.731H3.93A.843.843,0,0,1,3.111,14.71Zm0,0"/></svg>