<svg xmlns="http://www.w3.org/2000/svg" width="18.154" height="17.02" viewBox="0 0 18.154 17.02"><defs><style>.a{fill:#003da6;}</style></defs><g transform="translate(0 -15.995)"><g transform="translate(0 18.264)"><g transform="translate(0 0)"><path class="a" d="M14.183,87.947a.568.568,0,0,0-.567.567v5.106H1.135V81.14H6.241a.567.567,0,1,0,0-1.135H.567A.568.568,0,0,0,0,80.572V94.188a.568.568,0,0,0,.567.567H14.183a.568.568,0,0,0,.567-.567V88.515A.568.568,0,0,0,14.183,87.947Z" transform="translate(0 -80.005)"/></g></g><g transform="translate(4.539 15.995)"><g transform="translate(0 0)"><path class="a" d="M141.423,20.107l-4.539-3.971a.567.567,0,0,0-.941.427v1.7h-.336a7.412,7.412,0,0,0-7.3,6.332l-.3,2.1a.567.567,0,0,0,.368.613.578.578,0,0,0,.194.034.566.566,0,0,0,.481-.267l.836-1.339a6.209,6.209,0,0,1,5.293-2.933h.765v1.7a.567.567,0,0,0,.941.427l4.539-3.971a.566.566,0,0,0,0-.853Zm-4.345,3.147V22.236a.568.568,0,0,0-.567-.567h-1.332a7.327,7.327,0,0,0-5.672,2.658,6.276,6.276,0,0,1,6.1-4.928h.9a.568.568,0,0,0,.567-.567V17.813l3.11,2.721Z" transform="translate(-128.001 -15.995)"/></g></g></g></svg>