<svg xmlns="http://www.w3.org/2000/svg" width="22" height="22" viewBox="0 0 22 22"><defs><style>.a{fill:#3e5c9a;}.b{fill:#fff;}</style></defs><g transform="translate(-266.345 -80.114)"><path class="a" d="M277.345,102.114h0a11,11,0,0,1-11-11h0a11,11,0,0,1,11-11h0a11,11,0,0,1,11,11h0A11,11,0,0,1,277.345,102.114Z"/><path class="b" d="M293.6,107.6h2.678v-6.705h1.868l.2-2.245h-2.067V97.369c0-.529.106-.739.618-.739h1.449V94.3h-1.854c-1.992,0-2.891.878-2.891,2.557v1.79H292.2v2.273H293.6Z" transform="translate(-17.927 -9.835)"/></g></svg>