<svg xmlns="http://www.w3.org/2000/svg" width="17.055" height="17.055" viewBox="0 0 17.055 17.055"><defs><style>.a{fill:#2f3540;}</style></defs><g transform="translate(0 0)"><path class="a" d="M15.556,4H13.523a2.5,2.5,0,0,0-2-4A2.242,2.242,0,0,0,9.6.936,9.7,9.7,0,0,0,8.527,3.157,9.7,9.7,0,0,0,7.455.936,2.242,2.242,0,0,0,5.53,0a2.5,2.5,0,0,0-2,4H1.5A1.5,1.5,0,0,0,0,5.5v1A1.5,1.5,0,0,0,1,7.909v7.647a1.5,1.5,0,0,0,1.5,1.5H14.557a1.5,1.5,0,0,0,1.5-1.5V7.909a1.5,1.5,0,0,0,1-1.413v-1A1.5,1.5,0,0,0,15.556,4ZM9.445,3.556C10.21,1.614,10.5,1,11.525,1a1.5,1.5,0,0,1,0,3H9.27ZM5.53,1c1.024,0,1.315.614,2.081,2.556L7.785,4H5.53a1.5,1.5,0,1,1,0-3Zm1,15.056H2.5a.5.5,0,0,1-.5-.5V7.994h4.53Zm0-9.06H1.5A.5.5,0,0,1,1,6.5v-1A.5.5,0,0,1,1.5,5h5.03Zm3,9.06h-2V5h2Zm5.53-.5a.5.5,0,0,1-.5.5H10.526V7.994h4.53Zm1-9.06a.5.5,0,0,1-.5.5h-5.03V5h5.03a.5.5,0,0,1,.5.5Z" transform="translate(0 0)"/></g></svg>