<svg xmlns="http://www.w3.org/2000/svg" width="71.137" height="63" viewBox="0 0 71.137 63"><defs><style>.a{fill:#00a3e0;}.a,.b{opacity:0.256;}.b,.d,.f{fill:none;}.b{stroke:#00a3e0;}.c{fill:#003da6;stroke-width:0.3px;}.c,.d{stroke:#003da6;}.d{stroke-linecap:round;stroke-width:1.4px;}.e{stroke:none;}</style></defs><g transform="translate(-199.209 -312)"><circle class="a" cx="26" cy="26" r="26" transform="translate(205.892 317)"/><g class="b" transform="translate(200.892 312)"><ellipse class="e" cx="31" cy="31.5" rx="31" ry="31.5"/><ellipse class="f" cx="31" cy="31.5" rx="30.5" ry="31"/></g><path class="c" d="M16514.734,22116.605a.748.748,0,0,1-.531-.221l-8.455-8.447a.776.776,0,0,1-.221-.533.743.743,0,0,1,.221-.523l2.307-2.295a3.417,3.417,0,0,1,2.449-1.02c.061,0,.121,0,.18,0a8.957,8.957,0,0,1,6.416-5.025v-16.738a.75.75,0,0,1,.752-.746h19.2a.745.745,0,0,1,.742.746v14.582l.719-.746a2.993,2.993,0,0,1,5.248,1.707,2.945,2.945,0,0,1-.7,2.176l-6.693,8.037c-.006.01-.029.033-.041.049a6.661,6.661,0,0,1-4.691,1.9h-9.836a3.426,3.426,0,0,0-2.412.982l-.824.8a3.5,3.5,0,0,1-1,2.8l-2.3,2.293A.763.763,0,0,1,16514.734,22116.605Zm-4.221-11.543a1.964,1.964,0,0,0-1.406.578l-1.771,1.77,7.4,7.393,1.766-1.768a1.978,1.978,0,0,0,0-2.807l-4.586-4.582A1.951,1.951,0,0,0,16510.514,22105.063Zm8.8-5.256a9.26,9.26,0,0,0-1.352.1,7.508,7.508,0,0,0-5.814,4.074,3.383,3.383,0,0,1,.82.6l4.6,4.588a3.875,3.875,0,0,1,.447.561l.336-.32a4.962,4.962,0,0,1,3.451-1.385h9.836a5.186,5.186,0,0,0,3.613-1.457l6.668-8a1.506,1.506,0,0,0-.168-2.119,1.532,1.532,0,0,0-.963-.346,1.5,1.5,0,0,0-1.148.523.063.063,0,0,1-.035.039c-.105.115-2.256,2.346-3.619,3.752l-.479.49c-.41.426-.689.715-.725.75a2.4,2.4,0,0,1,.025.395,3,3,0,0,1-2.988,2.988h-6.5a.749.749,0,0,1,0-1.5h6.5a1.493,1.493,0,1,0,0-2.986h-8.656a2,2,0,0,1-.711-.139A8.39,8.39,0,0,0,16519.314,22099.807Zm.023-1.488a9.568,9.568,0,0,1,3.668.717.6.6,0,0,0,.154.033h8.656a2.994,2.994,0,0,1,2.324,1.1l2.16-2.227v-15.389h-17.7v15.789C16518.818,22098.336,16519.055,22098.318,16519.338,22098.318Zm2.863,6.6a.734.734,0,0,1-.523-.225.758.758,0,0,1,0-1.059.76.76,0,0,1,1.055,0,.762.762,0,0,1,0,1.059A.73.73,0,0,1,16522.2,22104.916Zm5.283-11.824a4.492,4.492,0,0,1-4.479-4.484v-1.488a.757.757,0,0,1-.746-.758.745.745,0,0,1,.746-.742h1.492a.743.743,0,0,1,.748.742.753.753,0,0,1-.748.758v1.488a2.987,2.987,0,1,0,5.975,0v-1.488a.752.752,0,0,1-.74-.758.74.74,0,0,1,.74-.742h1.494a.745.745,0,0,1,.744.742.754.754,0,0,1-.744.758v1.488A4.494,4.494,0,0,1,16527.484,22093.092Z" transform="translate(-16306.168 -21744.342)"/><path class="c" d="M16543,22098.115a1.892,1.892,0,0,1-1.348-.553l-2.531-2.529a4.443,4.443,0,0,1-1.473.25,4.521,4.521,0,0,1-4.277-6l-2.525-2.525a1.881,1.881,0,0,1-.559-1.35,1.9,1.9,0,0,1,.559-1.355l17.9-17.965a1.885,1.885,0,0,1,1.346-.562,1.907,1.907,0,0,1,1.354.563l0,0,2.238,2.307a4.389,4.389,0,0,1,2.641-.867,4.528,4.528,0,0,1,2.734.918l2.736-2.738a.638.638,0,0,1,.451-.186.631.631,0,0,1,.445.186.639.639,0,0,1,0,.9l-2.73,2.73a4.489,4.489,0,0,1,.047,5.375l2.3,2.24.006,0,0,0a1.914,1.914,0,0,1,0,2.7l-17.973,17.9A1.888,1.888,0,0,1,16543,22098.115Zm-3.725-4.467a.611.611,0,0,1,.447.188l2.824,2.822a.637.637,0,0,0,.453.189.628.628,0,0,0,.449-.189l17.975-17.9a.644.644,0,0,0,0-.891l-2.732-2.654a.63.63,0,0,1-.2-.449.661.661,0,0,1,.188-.457,3.208,3.208,0,0,0,.359-4.055l-.932.932a1.9,1.9,0,1,1-.9-.9l.934-.934a3.253,3.253,0,0,0-1.822-.555,3.129,3.129,0,0,0-2.229.916.626.626,0,0,1-.451.191.637.637,0,0,1-.457-.2l-2.652-2.727a.615.615,0,0,0-.447-.184.631.631,0,0,0-.449.186l-17.893,17.967a.635.635,0,0,0-.184.449.643.643,0,0,0,.184.451l2.824,2.828a.647.647,0,0,1,.125.721,3.252,3.252,0,0,0,4.314,4.309A.544.544,0,0,1,16539.271,22093.648Zm17.119-22.275a.636.636,0,0,0-.451,1.088.62.62,0,0,0,.451.188.608.608,0,0,0,.443-.187.632.632,0,0,0,0-.9A.626.626,0,0,0,16556.391,22071.373Zm-12.945,23.223a.627.627,0,0,1-.449-.191l-9-9a.63.63,0,0,1,0-.9l4.906-4.912a.655.655,0,0,1,.449-.187.644.644,0,0,1,.455.188.644.644,0,0,1,0,.9l-4.463,4.453,8.105,8.105,14.293-14.289-8.1-8.105-6.236,6.232a.627.627,0,0,1-.895,0,.634.634,0,0,1,0-.9l6.68-6.684a.63.63,0,0,1,.9,0l9.006,9a.635.635,0,0,1,0,.9l-15.191,15.191A.63.63,0,0,1,16543.445,22094.6Zm3.1-7.236a1.921,1.921,0,0,1-1.908-1.914,1.909,1.909,0,1,1,1.908,1.914Zm0-2.549a.63.63,0,0,0-.445.189.61.61,0,0,0-.187.445.632.632,0,0,0,.188.455.634.634,0,0,0,.9,0,.634.634,0,0,0,0-.9A.624.624,0,0,0,16546.549,22084.811Zm-4.5-1.426a.646.646,0,0,1-.625-.506.654.654,0,0,1,.5-.756l9.006-1.8c.043,0,.088-.012.123-.012a.643.643,0,0,1,.627.514.636.636,0,0,1-.5.75l-9,1.8A.574.574,0,0,1,16542.049,22083.385Zm4.5-3.23a1.914,1.914,0,1,1,1.35-.559A1.89,1.89,0,0,1,16546.549,22080.154Zm0-2.541a.618.618,0,0,0-.445.182.608.608,0,0,0-.187.447.636.636,0,1,0,1.271,0,.65.65,0,0,0-.187-.449A.618.618,0,0,0,16546.549,22077.613Zm-5.4,1.271a.637.637,0,0,1-.447-.187.637.637,0,0,1,.9-.9.651.651,0,0,1,0,.9A.636.636,0,0,1,16541.148,22078.885Z" transform="translate(-16292.68 -21749.535)"/><line class="d" x2="21.572" transform="translate(207.769 322.247)"/><line class="d" transform="translate(231.498 322.247)"/><line class="d" x2="21.572" transform="translate(220.712 326.561)"/><line class="d" x2="14.74" transform="translate(231.859 367.549)"/><line class="d" x2="2.157" transform="translate(250.913 367.549)"/></g></svg>