<svg xmlns="http://www.w3.org/2000/svg" width="6.5" height="14.003" viewBox="0 0 6.5 14.003"><defs><style>.a{fill:#2f3540;}</style></defs><g transform="translate(-31.139)"><path class="a" d="M37.444,12.491l-.206.8q-.925.348-1.476.529a4.075,4.075,0,0,1-1.28.182,2.642,2.642,0,0,1-1.741-.52,1.649,1.649,0,0,1-.621-1.321,4.449,4.449,0,0,1,.046-.636,7.436,7.436,0,0,1,.15-.734l.771-2.6q.1-.373.174-.707a2.93,2.93,0,0,0,.07-.608.911.911,0,0,0-.216-.694,1.264,1.264,0,0,0-.824-.2,2.261,2.261,0,0,0-.613.089c-.21.059-.389.116-.539.169l.206-.8q.757-.293,1.449-.5a4.534,4.534,0,0,1,1.31-.209,2.577,2.577,0,0,1,1.715.512,1.661,1.661,0,0,1,.6,1.329c0,.113-.013.312-.042.6a3.814,3.814,0,0,1-.154.783l-.767,2.586a6.588,6.588,0,0,0-.169.712,3.5,3.5,0,0,0-.075.6.846.846,0,0,0,.242.7,1.418,1.418,0,0,0,.84.187,2.538,2.538,0,0,0,.635-.093A3.674,3.674,0,0,0,37.444,12.491Zm.195-10.856A1.481,1.481,0,0,1,37.1,2.787a1.88,1.88,0,0,1-1.293.476,1.9,1.9,0,0,1-1.3-.476,1.5,1.5,0,0,1,0-2.307A1.99,1.99,0,0,1,37.1.48,1.5,1.5,0,0,1,37.639,1.635Z" transform="translate(0)"/></g></svg>