<svg xmlns="http://www.w3.org/2000/svg" width="16.979" height="16" viewBox="0 0 16.979 16"><defs><style>.a{fill:#E87722;}</style></defs><g transform="translate(0 -14.759)"><g transform="translate(0 14.759)"><path class="a" d="M16.626,27l-6-11.025a2.487,2.487,0,0,0-4.278,0L.353,27a2.486,2.486,0,0,0,2.138,3.757h12A2.486,2.486,0,0,0,16.626,27ZM8.49,28.769a.995.995,0,1,1,.995-.995A1,1,0,0,1,8.49,28.769Zm.995-3.979a.995.995,0,1,1-1.99,0V19.815a.995.995,0,1,1,1.99,0Z" transform="translate(0 -14.759)"/></g></g></svg>