<svg xmlns="http://www.w3.org/2000/svg" width="24" height="24" viewBox="0 0 24 24"><defs><style>.a{fill:#b2b2b2;}.b{fill:#fff;opacity:0;}</style></defs><g transform="translate(-36.25)"><g transform="translate(38.25)"><path class="a" d="M15792.261,22274a2.379,2.379,0,0,1-2.354-2.4h4.707A2.38,2.38,0,0,1,15792.261,22274Zm10-3.6h-16.039l13-13.463a7.881,7.881,0,0,1,.69,3.26v6.6l2.354,2.4v1.2Zm-20-.223v-.98l2.353-2.4v-6.6a7.688,7.688,0,0,1,5.887-7.557v-.838a1.764,1.764,0,1,1,3.527,0v.838a7.775,7.775,0,0,1,3.41,1.826l-15.175,15.709Z" transform="translate(-15782.263 -22250)"/></g><rect class="b" width="24" height="24" transform="translate(36.25)"/><rect class="a" width="2" height="29" transform="matrix(0.719, 0.695, -0.695, 0.719, 56.743, 0.028)"/></g></svg>