<svg xmlns="http://www.w3.org/2000/svg" width="25.15" height="25" viewBox="0 0 25.15 25"><defs><style>.a,.b{fill:none;}.b{stroke:#003da6;stroke-width:1.5px;}.c,.d{stroke:none;}.d{fill:#003da6;}</style></defs><g transform="translate(-60 -20)"><g class="a" transform="translate(60 20)"><path class="c" d="M6,0H19.15a6,6,0,0,1,6,6V19a6,6,0,0,1-6,6H6a6,6,0,0,1-6-6V6A6,6,0,0,1,6,0Z"/><path class="d" d="M 6 1.5 C 3.51869010925293 1.5 1.5 3.51869010925293 1.5 6 L 1.5 19 C 1.5 21.48130989074707 3.51869010925293 23.5 6 23.5 L 19.14999961853027 23.5 C 21.63130950927734 23.5 23.64999961853027 21.48130989074707 23.64999961853027 19 L 23.64999961853027 6 C 23.64999961853027 3.51869010925293 21.63130950927734 1.5 19.14999961853027 1.5 L 6 1.5 M 6 0 L 19.14999961853027 0 C 22.46371078491211 0 25.14999961853027 2.686290740966797 25.14999961853027 6 L 25.14999961853027 19 C 25.14999961853027 22.3137092590332 22.46371078491211 25 19.14999961853027 25 L 6 25 C 2.686290740966797 25 0 22.3137092590332 0 19 L 0 6 C 0 2.686290740966797 2.686290740966797 0 6 0 Z"/></g><path class="b" d="M0,0S3.73,4.016,5,5c1.489-1.458,5-5,5-5" transform="translate(74.5 27.5) rotate(90)"/></g></svg>