<svg xmlns="http://www.w3.org/2000/svg" width="17.021" height="17.021" viewBox="0 0 17.021 17.021"><defs><style>.a{fill:#2f3540;}</style></defs><path class="a" d="M16.413,4.255h-3.04V.608A.608.608,0,0,0,12.766,0H4.255a.608.608,0,0,0-.608.608V4.255H.608A.608.608,0,0,0,0,4.863v7.9a.608.608,0,0,0,.608.608h3.04v3.04a.608.608,0,0,0,.608.608h8.511a.608.608,0,0,0,.608-.608v-3.04h3.04a.608.608,0,0,0,.608-.608v-7.9A.608.608,0,0,0,16.413,4.255ZM4.863,1.216h7.295v3.04H4.863Zm7.295,14.59H4.863V10.334h7.295Zm3.647-3.647H13.374V10.334h.608a.608.608,0,1,0,0-1.216H3.04a.608.608,0,1,0,0,1.216h.608v1.824H1.216V5.471h14.59Z"/><g transform="translate(13.374 6.687)"><path class="a" d="M376.682,187.733h-.608a.608.608,0,1,0,0,1.216h.608a.608.608,0,0,0,0-1.216Z" transform="translate(-375.466 -187.733)"/></g><g transform="translate(6.079 11.55)"><path class="a" d="M174.921,324.267h-3.647a.608.608,0,1,0,0,1.216h3.647a.608.608,0,1,0,0-1.216Z" transform="translate(-170.666 -324.267)"/></g><g transform="translate(6.079 13.374)"><path class="a" d="M174.921,375.467h-3.647a.608.608,0,0,0,0,1.216h3.647a.608.608,0,0,0,0-1.216Z" transform="translate(-170.666 -375.467)"/></g></svg>