<svg xmlns="http://www.w3.org/2000/svg" width="15" height="15" viewBox="0 0 12.21 12.204"><defs><style>.a,.b{fill:#6c757d;}.a{stroke:#6c757d;stroke-width:0.2px;}</style></defs><g transform="translate(0.1 0.087)"><path class="a" d="M11.564.449A1.611,1.611,0,0,0,10.392.013,3.624,3.624,0,0,0,8.941.369.349.349,0,0,0,8.9.387,7.273,7.273,0,0,0,6.85,1.855l-.962.962A5.519,5.519,0,0,0,.1,4.1a.352.352,0,0,0,0,.5l2.249,2.25.033.033-.876.876a.352.352,0,0,0,0,.5l2.249,2.25a.351.351,0,0,0,.5,0l.876-.876.033.033h0l2.249,2.25a.351.351,0,0,0,.5,0A5.515,5.515,0,0,0,9.2,6.127l.962-.962a6.794,6.794,0,0,0,1.661-2.538A2.058,2.058,0,0,0,11.564.449Zm-.5.5a1.382,1.382,0,0,1,.114,1.369L9.7.831a2.415,2.415,0,0,1,.695-.115.918.918,0,0,1,.674.23ZM5.33,3.375,2.6,6.106.858,4.362A4.8,4.8,0,0,1,5.33,3.375ZM4.006,9.762,2.254,8.009l.627-.628L4.3,8.8l.336.336Zm3.646,1.4L5.909,9.416l2.73-2.731A4.811,4.811,0,0,1,7.652,11.159ZM9.661,4.667,5.412,8.918,4.5,8.009,7.629,4.882a.352.352,0,0,0-.5-.5L4.006,7.512,3.1,6.6,6.22,3.48l.006-.006L7.347,2.352A6.816,6.816,0,0,1,8.995,1.123l1.9,1.9A6.739,6.739,0,0,1,9.661,4.667Z" transform="translate(0 0)"/><path class="b" d="M359.843,97.618l-.677-.677a.381.381,0,0,0-.538.538l.677.677a.381.381,0,0,0,.538-.538Z" transform="translate(-350.201 -94.571)"/></g></svg>