<svg xmlns="http://www.w3.org/2000/svg" width="66.217" height="66.289" viewBox="0 0 66.217 66.289"><defs><style>.a{opacity:0.719;}.b{fill:#003da6;}.c,.e{fill:none;}.c{stroke:#01a0df;stroke-width:7px;opacity:0.211;}.d{stroke:none;}</style></defs><g transform="translate(0)"><g class="a" transform="translate(0)"><g transform="translate(20.693 41.449)"><path class="b" d="M161.5,320.143h-.1a1.293,1.293,0,1,0,0,2.587h.122a1.293,1.293,0,1,0-.017-2.587Z" transform="translate(-160.105 -320.143)"/></g><g transform="translate(6.725 6.789)"><path class="b" d="M67.484,52.438A15.261,15.261,0,1,0,82.745,67.7,15.278,15.278,0,0,0,67.484,52.438Zm0,27.935a12.616,12.616,0,0,1-8.03-2.876,3.186,3.186,0,0,1,2.593-2.842l2.1-.388,2.245,3.59a1.293,1.293,0,0,0,2.193,0l2.244-3.589,2.1.388A3.186,3.186,0,0,1,75.514,77.5,12.615,12.615,0,0,1,67.484,80.373ZM65.013,65.492a6.587,6.587,0,0,0,4.279-1.572l1.734,1.019v1.313a3.542,3.542,0,0,1-7.084,0v-.76h1.071Zm-1.069-2.587a3.542,3.542,0,0,1,6.863-1.095l-1.068-.628a1.293,1.293,0,0,0-1.646.284,4.01,4.01,0,0,1-3.08,1.438Zm4.715,9.947-1.175,1.879-1.176-1.88a3.139,3.139,0,0,0,.275-.537,6.11,6.11,0,0,0,1.8,0A3.141,3.141,0,0,0,68.659,72.853Zm8.918,2.5a5.772,5.772,0,0,0-4.186-3.244l-2.189-.4a.584.584,0,0,1-.4-.307,6.127,6.127,0,0,0,2.808-5.147V63.035a6.128,6.128,0,1,0-12.257,0v3.218A6.127,6.127,0,0,0,64.163,71.4a.581.581,0,0,1-.4.308l-2.188.4a5.772,5.772,0,0,0-4.186,3.244,12.674,12.674,0,1,1,20.186,0Z" transform="translate(-52.223 -52.438)"/></g><g transform="translate(0 0.064)"><path class="b" d="M64.389,54.6,46.358,36.572a1.293,1.293,0,0,0-1.829,0l-.994.994L40.6,34.627A21.988,21.988,0,1,0,.279,22.48,21.782,21.782,0,0,0,4.821,35.864a22.139,22.139,0,0,0,11.472,7.78,1.293,1.293,0,0,0,.7-2.49,19.4,19.4,0,1,1,20.918-7.2,1.247,1.247,0,0,0-.082.112,19.408,19.408,0,0,1-3.667,3.745,1.29,1.29,0,0,0-.274.208l0,0a19.315,19.315,0,0,1-6.743,3.238,1.293,1.293,0,1,0,.648,2.5,21.9,21.9,0,0,0,6.887-3.129l2.894,2.894-1.213,1.213a1.293,1.293,0,0,0,0,1.829l4.058,4.058h0L54.388,64.6a7.072,7.072,0,1,0,10-10ZM36.737,39.04a22.024,22.024,0,0,0,2.289-2.324L41.706,39.4,39.4,41.7ZM62.56,62.775a4.49,4.49,0,0,1-6.343,0L43.158,49.716l3.171-3.171A1.293,1.293,0,0,0,44.5,44.716l-3.172,3.171L39.1,45.658l1.212-1.212h0l4.135-4.135h0l.994-.994L62.56,56.432a4.486,4.486,0,0,1,0,6.343Z" transform="translate(-0.279 -0.494)"/></g><g transform="translate(41.798)"><path class="b" d="M336.933,0a10.608,10.608,0,0,0-9.141,5.237h-3.379a1.293,1.293,0,0,0,0,2.587H326.7a10.6,10.6,0,0,0,8.991,13.311v11.92a1.293,1.293,0,1,0,2.587,0V21.122A10.6,10.6,0,0,0,336.933,0Zm5.338,16.582a8,8,0,0,1-10.676,0V16.5a1.6,1.6,0,0,1,1.309-1.575l1.062-.2a4.441,4.441,0,0,0,5.935,0l1.062.2a1.6,1.6,0,0,1,1.309,1.575Zm-7.2-5.168V9.359a1.865,1.865,0,0,1,3.729,0v2.055a1.865,1.865,0,0,1-3.729,0Zm9.06,2.727a4.184,4.184,0,0,0-2.691-1.757l-.154-.029a4.451,4.451,0,0,0,.1-.941V9.359a4.451,4.451,0,1,0-8.9,0v2.055a4.451,4.451,0,0,0,.1.941l-.154.029a4.184,4.184,0,0,0-2.691,1.757,8.019,8.019,0,1,1,14.39,0Z" transform="translate(-323.12)"/></g><g transform="translate(54.37 36.779)"><path class="b" d="M422.429,284.454a1.292,1.292,0,1,0,.379.914A1.3,1.3,0,0,0,422.429,284.454Z" transform="translate(-420.221 -284.075)"/></g><g transform="translate(0 41.448)"><path class="b" d="M27.858,333.076h-6.45a10.6,10.6,0,0,0-13.368-8.921v-2.729a1.293,1.293,0,0,0-2.587,0v3.839a10.6,10.6,0,1,0,15.955,10.4h6.45a1.293,1.293,0,0,0,0-2.587Zm-11.636,7.27a8,8,0,0,1-10.676,0v-.08a1.6,1.6,0,0,1,1.309-1.575l1.062-.2a4.441,4.441,0,0,0,5.935,0l1.062.2a1.6,1.6,0,0,1,1.309,1.575Zm-7.2-5.168v-2.055a1.865,1.865,0,1,1,3.729,0v2.055a1.865,1.865,0,0,1-3.729,0Zm9.06,2.727a4.184,4.184,0,0,0-2.691-1.757l-.154-.029a4.452,4.452,0,0,0,.1-.941v-2.055a4.451,4.451,0,1,0-8.9,0v2.055a4.452,4.452,0,0,0,.1.941l-.154.029A4.184,4.184,0,0,0,3.689,337.9a8.018,8.018,0,1,1,14.389,0Z" transform="translate(-0.279 -320.133)"/></g><g transform="translate(31.815 54.391)"><path class="b" d="M252.477,420.1H247.3a1.293,1.293,0,1,0,0,2.587h5.173a1.293,1.293,0,1,0,0-2.587Z" transform="translate(-246.011 -420.1)"/></g><g transform="translate(25.607 59.814)"><path class="b" d="M199.356,461.991a1.293,1.293,0,0,0,0,2.587h.013a1.293,1.293,0,1,0-.013-2.587Z" transform="translate(-198.063 -461.991)"/></g><g transform="translate(31.809 59.814)"><path class="b" d="M247.255,461.991a1.293,1.293,0,0,0,0,2.587h.013a1.293,1.293,0,1,0-.013-2.587Z" transform="translate(-245.962 -461.991)"/></g><g transform="translate(38.01 59.814)"><path class="b" d="M295.154,461.991a1.293,1.293,0,0,0,0,2.587h.013a1.293,1.293,0,1,0-.013-2.587Z" transform="translate(-293.861 -461.991)"/></g></g><g class="c" transform="translate(7.453 7.216)"><circle class="d" cx="15" cy="15" r="15"/><circle class="e" cx="15" cy="15" r="18.5"/></g></g></svg>