<svg xmlns="http://www.w3.org/2000/svg" width="43.052" height="40.014" viewBox="0 0 43.052 40.014"><defs><style>.a{fill:#fff;}</style></defs><path class="a" d="M214.728,300.731a.841.841,0,1,0-1.19,0A.842.842,0,0,0,214.728,300.731Zm0,0" transform="translate(-195.357 -274.128)"/><path class="a" d="M224.849,62.686v1.682a5.045,5.045,0,0,0,10.091,0V62.686a.841.841,0,0,0,0-1.682h-1.682a.841.841,0,1,0,0,1.682v1.682a3.364,3.364,0,0,1-6.727,0V62.686a.841.841,0,0,0,0-1.682h-1.682a.841.841,0,1,0,0,1.682Zm0,0" transform="translate(-205.172 -55.874)"/><path class="a" d="M9.772,39.768a.841.841,0,0,0,1.189,0l2.582-2.582a3.893,3.893,0,0,0,1.129-3.155l.926-.894a3.9,3.9,0,0,1,2.72-1.1H29.389a7.525,7.525,0,0,0,5.278-2.145.789.789,0,0,0,.059-.064l7.533-9.046a3.364,3.364,0,0,0-5.119-4.365l-.814.842V.841A.841.841,0,0,0,35.486,0H13.875a.841.841,0,0,0-.841.841V19.68A10.115,10.115,0,0,0,5.8,25.34a3.883,3.883,0,0,0-2.961,1.141l-2.6,2.582a.841.841,0,0,0,0,1.191ZM34.645,1.682V19l-2.434,2.516A3.379,3.379,0,0,0,29.6,20.265H19.85a.464.464,0,0,1-.171-.036,10.866,10.866,0,0,0-4.122-.8c-.281,0-.562.01-.841.029V1.682ZM14,21.217a9.554,9.554,0,0,1,5.052.571,2.139,2.139,0,0,0,.8.16H29.6a1.682,1.682,0,0,1,0,3.363H22.283a.841.841,0,1,0,0,1.682H29.6a3.358,3.358,0,0,0,3.334-3.8c.175-.18,5.258-5.436,5.434-5.619.013-.013.026-.027.037-.041A1.682,1.682,0,1,1,40.971,19.7l-7.508,9.016a5.851,5.851,0,0,1-4.074,1.638H18.318a5.574,5.574,0,0,0-3.887,1.57l-.371.358a3.914,3.914,0,0,0-.516-.636L8.379,26.483a3.926,3.926,0,0,0-.928-.686A8.419,8.419,0,0,1,14,21.217ZM4.031,27.672a2.23,2.23,0,0,1,3.158,0l5.165,5.165a2.231,2.231,0,0,1,0,3.158l-1.989,1.988L2.032,29.661Zm0,0" transform="translate(0)"/></svg>