<svg xmlns="http://www.w3.org/2000/svg" xmlns:xlink="http://www.w3.org/1999/xlink" width="57.503" height="57.5" viewBox="0 0 57.503 57.5">
  <defs>
    <linearGradient id="linear-gradient" x1="0.5" x2="0.5" y2="1" gradientUnits="objectBoundingBox">
      <stop offset="0" stop-color="#00a3e0"/>
      <stop offset="1" stop-color="#003da6"/>
    </linearGradient>
  </defs>
  <g id="Group_9699" data-name="Group 9699" transform="translate(-551 -365.859)">
    <g id="_921339" data-name="921339" transform="translate(551 365.859)" opacity="0.719">
      <g id="Group_9680" data-name="Group 9680" transform="translate(17.979 35.958)">
        <g id="Group_9679" data-name="Group 9679">
          <path id="Path_6426" data-name="Path 6426" d="M161.32,320.143h-.091a1.124,1.124,0,0,0,0,2.247h.106a1.124,1.124,0,1,0-.015-2.247Z" transform="translate(-160.105 -320.143)" fill="url(#linear-gradient)"/>
        </g>
      </g>
      <g id="Group_9684" data-name="Group 9684" transform="translate(0 0)">
        <g id="Group_9683" data-name="Group 9683">
          <path id="Path_6428" data-name="Path 6428" d="M55.982,47.508,40.316,31.841a1.124,1.124,0,0,0-1.589,0l-.864.864-2.554-2.554A19.1,19.1,0,1,0,.279,19.6,18.926,18.926,0,0,0,4.226,31.226a19.236,19.236,0,0,0,9.967,6.76,1.124,1.124,0,0,0,.609-2.163,16.854,16.854,0,1,1,18.175-6.256,1.083,1.083,0,0,0-.071.1,16.863,16.863,0,0,1-3.186,3.254,1.121,1.121,0,0,0-.238.181l0,0a16.782,16.782,0,0,1-5.859,2.813,1.124,1.124,0,1,0,.563,2.176,19.032,19.032,0,0,0,5.984-2.718l2.514,2.514-1.054,1.054a1.124,1.124,0,0,0,0,1.589l3.526,3.526h0L47.293,56.2a6.144,6.144,0,1,0,8.69-8.69ZM31.957,33.985a19.135,19.135,0,0,0,1.989-2.019l2.328,2.328-2,2ZM54.393,54.608a3.9,3.9,0,0,1-5.511,0L37.536,43.262l2.756-2.756A1.124,1.124,0,0,0,38.7,38.917l-2.756,2.756L34.01,39.736l1.053-1.053h0l3.593-3.593h0l.863-.863L54.393,49.1a3.9,3.9,0,0,1,0,5.511Z" transform="translate(-0.279 -0.494)" fill="url(#linear-gradient)"/>
        </g>
      </g>
      <g id="Group_9688" data-name="Group 9688" transform="translate(47.241 31.901)">
        <g id="Group_9687" data-name="Group 9687">
          <path id="Path_6430" data-name="Path 6430" d="M422.139,284.4a1.123,1.123,0,1,0,.329.794A1.13,1.13,0,0,0,422.139,284.4Z" transform="translate(-420.221 -284.075)" fill="url(#linear-gradient)"/>
        </g>
      </g>
      <g id="Group_9698" data-name="Group 9698" transform="translate(33.026 51.915)">
        <g id="Group_9697" data-name="Group 9697">
          <path id="Path_6435" data-name="Path 6435" d="M294.985,461.991a1.124,1.124,0,1,0,0,2.247H295a1.124,1.124,0,1,0-.011-2.247Z" transform="translate(-293.861 -461.991)" fill="url(#linear-gradient)"/>
        </g>
      </g>
    </g>
    <circle id="Ellipse_218" data-name="Ellipse 218" cx="13" cy="13" r="13" transform="translate(556.859 371.859)" fill="none" opacity="0.211"/>
    <path id="Path_6439" data-name="Path 6439" d="M183.723,85.331a13.152,13.152,0,1,0,3.852,9.3A13.112,13.112,0,0,0,183.723,85.331Zm-7.843,14.748a1.276,1.276,0,0,1-.021.143c-.01.047-.021.094-.035.139a1.288,1.288,0,0,1-.049.135,1.182,1.182,0,0,1-.061.13c-.022.042-.048.084-.074.123a1.426,1.426,0,0,1-.085.116,1.277,1.277,0,0,1-.1.106,1.551,1.551,0,0,1-.223.183c-.04.026-.081.051-.123.073s-.086.043-.13.061a1.385,1.385,0,0,1-.135.048,1.227,1.227,0,0,1-.14.035c-.047.01-.095.016-.142.021a1.362,1.362,0,0,1-.288,0c-.048,0-.1-.012-.142-.021a1.175,1.175,0,0,1-.139-.035,1.281,1.281,0,0,1-.135-.048c-.044-.018-.088-.039-.13-.061a1.393,1.393,0,0,1-.123-.073c-.04-.026-.079-.056-.116-.086a1.286,1.286,0,0,1-.106-.1,1.22,1.22,0,0,1-.1-.106,1.35,1.35,0,0,1-.086-.116,1.251,1.251,0,0,1-.073-.123c-.022-.042-.043-.085-.062-.13s-.034-.089-.048-.135a1.071,1.071,0,0,1-.035-.139,1.368,1.368,0,0,1-.022-.143c0-.048-.008-.1-.008-.143s0-.1.008-.145a1.4,1.4,0,0,1,.022-.142,1.115,1.115,0,0,1,.035-.14c.014-.046.03-.091.048-.135s.039-.088.062-.13a1.337,1.337,0,0,1,.073-.123,1.23,1.23,0,0,1,.086-.116,1.453,1.453,0,0,1,.2-.2c.037-.03.076-.058.116-.085a1.417,1.417,0,0,1,.123-.074,1.376,1.376,0,0,1,.129-.061c.045-.018.09-.035.136-.049s.092-.025.139-.035.095-.016.142-.021a1.4,1.4,0,0,1,.288,0c.047,0,.095.012.142.021s.093.022.14.035.091.031.135.049a1.4,1.4,0,0,1,.13.061c.042.023.083.048.123.074a1.276,1.276,0,0,1,.115.085,1.432,1.432,0,0,1,.289.32c.026.04.052.081.074.123a1.621,1.621,0,0,1,.109.265c.014.046.025.093.035.14a1.3,1.3,0,0,1,.021.142,1.42,1.42,0,0,1,.007.145A1.393,1.393,0,0,1,175.88,100.079Zm.007-4.611a1.465,1.465,0,0,1-2.929,0V89.716a1.465,1.465,0,0,1,2.929,0Zm0,0" transform="translate(395.792 290.487)" fill="url(#linear-gradient)"/>
  </g>
</svg>
