<svg xmlns="http://www.w3.org/2000/svg" xmlns:xlink="http://www.w3.org/1999/xlink" width="62" height="62" viewBox="0 0 62 62"><defs><style>.a{fill:url(#a);}</style><linearGradient id="a" x1="0.844" y1="0.951" x2="0.029" y2="-0.052" gradientUnits="objectBoundingBox"><stop offset="0" stop-color="#003da6"/><stop offset="1" stop-color="#0bb1d3"/></linearGradient></defs><path class="a" d="M61,13H37.653A18.992,18.992,0,1,0,15.276,38.381,4.991,4.991,0,0,0,15,40V60a3,3,0,0,0,3,3h4a3,3,0,0,0,3-3V40a4.972,4.972,0,0,0-.273-1.611A18.936,18.936,0,0,0,31,35.476V43a2,2,0,0,0,2,2H61a2,2,0,0,0,2-2V33a2,2,0,0,0-2-2H35.481a18.784,18.784,0,0,0,2.164-4H61a2,2,0,0,0,2-2V15a2,2,0,0,0-2-2ZM25,25V15H37V25Zm0,2h5.948a13,13,0,1,1,0-14H25a2,2,0,0,0-2,2V25A2,2,0,0,0,25,27ZM22,61H18a1,1,0,0,1-1-1V45h6V60A1,1,0,0,1,22,61Zm1-21v3H17V40a2.994,2.994,0,0,1,.265-1.22A18.98,18.98,0,0,0,20,39a19.011,19.011,0,0,0,2.736-.217A2.979,2.979,0,0,1,23,40Zm10-7H47V43H33ZM61,43H49V33H61ZM32.937,31.006a2,2,0,0,0-1.93,1.932A16.99,16.99,0,1,1,35.493,13H33.259a15,15,0,1,0,0,14h2.228A16.88,16.88,0,0,1,32.937,31.006ZM39,25V15H61V25Zm18-6h2v2H57Zm-4,0h2v2H53Zm-4,0h2v2H49Zm-4,0h2v2H45Zm-4,0h2v2H41Zm-5.293-1.293L29,24.414l-2.707-2.707,1.414-1.414L29,21.586l5.293-5.293ZM57,63a2,2,0,0,0,2-2V51a2,2,0,0,0-2-2H29a2,2,0,0,0-2,2V61a2,2,0,0,0,2,2Zm0-2H43V51H57ZM29,51H41V61H29Zm26,6H53V55h2Zm-4,0H49V55h2Zm-6,0V55h2v2ZM35,37h2v2H35Zm4,0h2v2H39Zm6,0v2H43V37ZM39.707,53.707,33,60.414l-2.707-2.707,1.414-1.414L33,57.586l5.293-5.293ZM53.586,38l-2.293-2.293,1.414-1.414L55,36.586l2.293-2.293,1.414,1.414L56.414,38l2.293,2.293-1.414,1.414L55,39.414l-2.293,2.293-1.414-1.414Z" transform="translate(-1 -1)"/></svg>