<svg xmlns="http://www.w3.org/2000/svg" width="14.93" height="14.93" viewBox="0 0 14.93 14.93"><defs><style>.a{fill:#003da6;}</style></defs><path class="a" d="M137.178,133.609a3.569,3.569,0,1,0,3.569,3.569A3.573,3.573,0,0,0,137.178,133.609Zm0,6.245a2.677,2.677,0,1,1,2.677-2.677A2.68,2.68,0,0,1,137.178,139.855Zm0,0" transform="translate(-129.713 -129.713)"/><path class="a" d="M14.578,5.765l-1.147-.249a6.245,6.245,0,0,0-.369-.891l.635-.988a.446.446,0,0,0-.06-.557L11.849,1.293a.446.446,0,0,0-.557-.06l-.988.635A6.245,6.245,0,0,0,9.414,1.5L9.165.351A.446.446,0,0,0,8.729,0H6.2a.446.446,0,0,0-.436.351L5.515,1.5a6.245,6.245,0,0,0-.891.369l-.988-.635a.446.446,0,0,0-.557.06L1.293,3.08a.446.446,0,0,0-.06.557l.635.988a6.245,6.245,0,0,0-.369.891L.351,5.765A.446.446,0,0,0,0,6.2V8.729a.446.446,0,0,0,.351.436L1.5,9.414a6.245,6.245,0,0,0,.369.891l-.635.988a.446.446,0,0,0,.06.557L3.08,13.637a.446.446,0,0,0,.557.06l.988-.635a6.245,6.245,0,0,0,.891.369l.249,1.147a.446.446,0,0,0,.436.351H8.729a.446.446,0,0,0,.436-.351l.249-1.147a6.245,6.245,0,0,0,.891-.369l.988.635a.446.446,0,0,0,.557-.06l1.788-1.788a.446.446,0,0,0,.06-.557l-.635-.988a6.245,6.245,0,0,0,.369-.891l1.147-.249a.446.446,0,0,0,.351-.436V6.2A.446.446,0,0,0,14.578,5.765Zm-.541,2.6L12.985,8.6a.446.446,0,0,0-.335.316,5.353,5.353,0,0,1-.494,1.192.446.446,0,0,0,.013.461l.583.906-1.279,1.279-.906-.583a.446.446,0,0,0-.46-.013,5.356,5.356,0,0,1-1.192.494.446.446,0,0,0-.316.335l-.229,1.052H6.56l-.229-1.052a.446.446,0,0,0-.316-.335,5.353,5.353,0,0,1-1.192-.494.446.446,0,0,0-.461.013l-.906.583L2.178,11.473l.583-.906a.446.446,0,0,0,.013-.461,5.358,5.358,0,0,1-.494-1.192A.446.446,0,0,0,1.944,8.6L.892,8.369V6.56l1.052-.229a.446.446,0,0,0,.335-.316,5.353,5.353,0,0,1,.494-1.192.446.446,0,0,0-.013-.461l-.583-.906L3.457,2.178l.906.583a.446.446,0,0,0,.46.013,5.356,5.356,0,0,1,1.192-.494.446.446,0,0,0,.316-.335L6.56.892H8.369L8.6,1.944a.446.446,0,0,0,.316.335,5.353,5.353,0,0,1,1.192.494.446.446,0,0,0,.461-.013l.906-.583,1.279,1.279-.583.906a.446.446,0,0,0-.013.461,5.353,5.353,0,0,1,.494,1.192.446.446,0,0,0,.335.316l1.052.229Zm0,0"/></svg>