<svg xmlns="http://www.w3.org/2000/svg" width="63.357" height="73.639" viewBox="0 0 63.357 73.639"><defs><style>.a,.e{fill:none;}.a{stroke:#00a3e0;}.a,.c{opacity:0.256;}.b{fill:#003da6;stroke:#fff;}.c{fill:#00a3e0;}.d{stroke:none;}</style></defs><g transform="translate(-460.351 -334)"><g class="a" transform="translate(462.36 334)"><circle class="d" cx="30" cy="30" r="30"/><circle class="e" cx="30" cy="30" r="29.5"/></g><path class="b" d="M57.752,49.311l-16.31-5.347V38.338A13.646,13.646,0,0,0,43.668,32.4h2.944a4.668,4.668,0,0,0,4.662-4.662V22.741a4.635,4.635,0,0,0-.812-2.625v-.832a19.284,19.284,0,0,0-38.567,0v.832a4.636,4.636,0,0,0-.812,2.625v4.993A4.668,4.668,0,0,0,15.745,32.4h2.944a13.643,13.643,0,0,0,2.276,6.012v5.539L4.606,49.311A6.676,6.676,0,0,0,0,55.668v6.69H62.357v-6.69a6.676,6.676,0,0,0-4.606-6.357ZM24.619,41.979a12.019,12.019,0,0,0,13.168-.032v2.521c-1.387,1.2-4.186,3.171-6.609,3.171s-5.189-1.972-6.559-3.165ZM40.126,21.337a5.664,5.664,0,0,1-4.665-5.567H31.807a5.662,5.662,0,0,1-5.656,5.656h-3.92V19.665a8.947,8.947,0,0,1,17.894,0Zm-17.894,3.87V25.08h3.92A9.3,9.3,0,0,0,33.634,21.3a9.312,9.312,0,0,0,6.492,3.724v5.6a10.355,10.355,0,0,1-.214,2.091H33.275v3.654H38.36a8.748,8.748,0,0,1-7.181,3.9c-4.933,0-8.947-4.325-8.947-9.642V25.207Zm25.389,2.528a1.01,1.01,0,0,1-1.009,1.009H43.78V21.732h2.832a1.01,1.01,0,0,1,1.009,1.009ZM31.179,3.654A15.651,15.651,0,0,1,46.763,18.082c-.05,0-.1,0-.151,0H43.68a12.6,12.6,0,0,0-25,0H15.745c-.051,0-.1,0-.151,0A15.651,15.651,0,0,1,31.179,3.654ZM14.737,27.734V22.741a1.01,1.01,0,0,1,1.009-1.009h2.832v7.011H15.745a1.01,1.01,0,0,1-1.009-1.009ZM58.7,58.7H49.778V54.928H46.124V58.7H16.233V54.928H12.579V58.7H3.654V55.668a3.03,3.03,0,0,1,2.09-2.885l16.609-5.444c1.576,1.344,5.113,3.953,8.826,3.953s7.264-2.6,8.855-3.944l16.579,5.435a3.029,3.029,0,0,1,2.09,2.885Z" transform="translate(460.851 344.781)"/><circle class="c" cx="25" cy="25" r="25" transform="translate(467.36 339)"/></g></svg>