<svg xmlns="http://www.w3.org/2000/svg" width="13.905" height="16.623" viewBox="0 0 13.905 16.623"><defs><style>.a{fill:#2f3540;stroke:#2f3540;stroke-width:0.2px;}</style></defs><g transform="translate(0.1 0.1)"><path class="a" d="M775.205,561.461A4.357,4.357,0,0,0,770.972,557a4.233,4.233,0,0,0-3.859,2.636h-4.3a1.351,1.351,0,0,0-1.312,1.383V572.04a1.351,1.351,0,0,0,1.312,1.383h8.579a1.351,1.351,0,0,0,1.312-1.383v-6.514A4.48,4.48,0,0,0,775.205,561.461Zm-3.271,10.58a.558.558,0,0,1-.542.572h-8.579a.559.559,0,0,1-.543-.572V561.019a.559.559,0,0,1,.543-.572h4.041a4.567,4.567,0,0,0,.049,2.23h-2.516a.406.406,0,0,0,0,.811h2.647a.365.365,0,0,0,.156-.037,4.431,4.431,0,0,0,1.356,1.659h-4.159a.406.406,0,0,0,0,.811h6.2a.35.35,0,0,0,.077-.016c.1.008.2.016.308.016a4.016,4.016,0,0,0,.962-.121Zm-.962-6.93a3.655,3.655,0,1,1,3.464-3.65A3.564,3.564,0,0,1,770.972,565.11Z" transform="translate(-761.5 -557)"/><path class="a" d="M784.811,564.481v-2.076a.405.405,0,1,0-.811,0v2.465l1.369,1.1a.406.406,0,1,0,.507-.633Z" transform="translate(-774.993 -559.972)"/><path class="a" d="M774.605,583h-6.2a.405.405,0,1,0,0,.811h6.2a.405.405,0,1,0,0-.811Z" transform="translate(-765.625 -572.457)"/><path class="a" d="M774.605,589h-6.2a.406.406,0,1,0,0,.811h6.2a.406.406,0,0,0,0-.811Z" transform="translate(-765.625 -576.023)"/></g></svg>