<svg xmlns="http://www.w3.org/2000/svg" width="22" height="22" viewBox="0 0 22 22"><defs><style>.a{fill:#29a9e1;}.b{fill:#fff;}</style></defs><g transform="translate(-57.467 -80.114)"><path class="a" d="M68.467,102.114h0a11,11,0,0,1-11-11h0a11,11,0,0,1,11-11h0a11,11,0,0,1,11,11h0A11,11,0,0,1,68.467,102.114Z" transform="translate(0)"/><path class="b" d="M74.222,109.173a6.324,6.324,0,0,0,3.58,1.116c4.336,0,6.785-3.9,6.637-7.39a4.908,4.908,0,0,0,1.165-1.286,4.437,4.437,0,0,1-1.341.391,2.468,2.468,0,0,0,1.026-1.374,4.517,4.517,0,0,1-1.483.6,2.269,2.269,0,0,0-1.7-.785,2.454,2.454,0,0,0-2.275,3.05,6.5,6.5,0,0,1-4.813-2.6,2.585,2.585,0,0,0,.723,3.317,2.227,2.227,0,0,1-1.058-.311,2.458,2.458,0,0,0,1.873,2.467,2.2,2.2,0,0,1-1.054.042,2.359,2.359,0,0,0,2.181,1.725A4.493,4.493,0,0,1,74.222,109.173Z" transform="translate(-11.446 -14.255)"/></g></svg>