<svg xmlns="http://www.w3.org/2000/svg" width="22.815" height="22.905" viewBox="0 0 22.815 22.905"><defs><style>.a{fill:#003da6;}</style></defs><g transform="translate(-1)"><path class="a" d="M23.144,3.579H20.237V2.46A2.463,2.463,0,0,0,17.77,0H3.46A2.46,2.46,0,0,0,1,2.46V22.234a.671.671,0,0,0,.671.671H15.987a.671.671,0,0,0,.671-.671V20.579h4.7a2.463,2.463,0,0,0,2.46-2.46V4.25A.671.671,0,0,0,23.144,3.579ZM15.316,21.563H2.342V2.46A1.12,1.12,0,0,1,3.46,1.342H15.585l-.011.046a2.511,2.511,0,0,0-.257,1.068V21.563Zm1.342-2.326V2.46a1.118,1.118,0,0,1,2.237,0V18.118a2.444,2.444,0,0,0,.268,1.115v0Zm5.816-1.118a1.118,1.118,0,0,1-2.237,0V4.921h2.237Z" transform="translate(0)"/><path class="a" d="M232.026,121h-1.351a.675.675,0,0,0,0,1.351h1.351a.675.675,0,0,0,0-1.351Z" transform="translate(-218.764 -115.589)"/><path class="a" d="M232.026,181h-1.351a.675.675,0,0,0,0,1.351h1.351a.675.675,0,0,0,0-1.351Z" transform="translate(-218.764 -172.906)"/><path class="a" d="M232.026,241h-1.351a.675.675,0,1,0,0,1.351h1.351a.675.675,0,1,0,0-1.351Z" transform="translate(-218.764 -230.223)"/><path class="a" d="M232.026,301h-1.351a.675.675,0,0,0,0,1.351h1.351a.675.675,0,0,0,0-1.351Z" transform="translate(-218.764 -287.54)"/><path class="a" d="M232.026,361h-1.351a.675.675,0,0,0,0,1.351h1.351a.675.675,0,0,0,0-1.351Z" transform="translate(-218.764 -344.857)"/><circle class="a" cx="0.818" cy="0.818" r="0.818" transform="translate(3.454 5.793)"/><circle class="a" cx="0.818" cy="0.818" r="0.818" transform="translate(3.454 8.226)"/><circle class="a" cx="0.818" cy="0.818" r="0.818" transform="translate(3.454 10.663)"/><circle class="a" cx="0.818" cy="0.818" r="0.818" transform="translate(3.454 13.1)"/><circle class="a" cx="0.818" cy="0.818" r="0.818" transform="translate(3.454 16.35)"/><path class="a" d="M123.377,121h-2.7a.675.675,0,0,0,0,1.351h2.7a.675.675,0,0,0,0-1.351Z" transform="translate(-113.684 -115.589)"/><path class="a" d="M123.377,181h-2.7a.675.675,0,0,0,0,1.351h2.7a.675.675,0,1,0,0-1.351Z" transform="translate(-113.684 -172.906)"/><path class="a" d="M123.377,241h-2.7a.675.675,0,1,0,0,1.351h2.7a.675.675,0,1,0,0-1.351Z" transform="translate(-113.684 -230.223)"/><path class="a" d="M123.377,301h-2.7a.675.675,0,0,0,0,1.351h2.7a.675.675,0,0,0,0-1.351Z" transform="translate(-113.684 -287.54)"/><path class="a" d="M123.377,361h-2.7a.675.675,0,0,0,0,1.351h2.7a.675.675,0,0,0,0-1.351Z" transform="translate(-113.684 -344.857)"/></g></svg>