<svg xmlns="http://www.w3.org/2000/svg" width="60.999" height="57.482" viewBox="0 0 60.999 57.482"><defs><style>.a{fill:#e87722;}</style></defs><g transform="translate(0 -14.759)"><g transform="translate(0 14.759)"><path class="a" d="M59.732,58.744,38.184,19.133a8.936,8.936,0,0,0-15.368,0L1.269,58.744a8.931,8.931,0,0,0,7.682,13.5h43.1A8.933,8.933,0,0,0,59.732,58.744ZM30.5,65.093a3.574,3.574,0,1,1,3.574-3.574A3.579,3.579,0,0,1,30.5,65.093Zm3.574-14.3a3.574,3.574,0,0,1-7.148,0V32.925a3.574,3.574,0,0,1,7.148,0Z" transform="translate(0 -14.759)"/></g></g></svg>